<?xml version="1.0" standalone="no"?>
<!DOCTYPE svg PUBLIC "-//W3C//DTD SVG 1.1//EN" "http://www.w3.org/Graphics/SVG/1.1/DTD/svg11.dtd" >
<svg>
<metadata>
Created by FontForge 20110222 at Tue May 26 16:03:49 2015
 By www-data
Copyright (c) 2010 Berton Hasebe, under exclusive license to Schwartzco Inc. d/b/a Commercial Type.
</metadata>
<defs>
<font id="Platform-Light" horiz-adv-x="625" >
  <font-face 
    font-family="Platform Light"
    font-weight="300"
    font-stretch="normal"
    units-per-em="1000"
    panose-1="2 11 3 4 3 2 2 2 2 4"
    ascent="825"
    descent="-175"
    x-height="535"
    cap-height="692"
    bbox="-58 -245 1114 1061"
    underline-thickness="50"
    underline-position="-50"
    stemh="54"
    stemv="58"
    unicode-range="U+0020-FB02"
  />
<missing-glyph horiz-adv-x="156" 
 />
    <glyph glyph-name="f_f" unicode="ff" horiz-adv-x="464" 
d="M346 580v-45h105v-51h-105v-484h-58v484h-162v-484h-58v484h-58v51h58v43c0 93 36 153 138 153h28v-51h-27c-69 0 -81 -43 -81 -100v-45h162v43c0 93 36 153 138 153h28v-51h-27c-69 0 -81 -43 -81 -100z" />
    <glyph glyph-name=".notdef" horiz-adv-x="156" 
 />
    <glyph glyph-name="Eth" unicode="&#xd0;" horiz-adv-x="539" 
d="M71 692h91c219 0 346 -139 346 -346c0 -205 -128 -346 -347 -346h-90v328h-61v52h61v312zM130 638v-258h140v-52h-140v-274h32c186 0 284 113 284 292c0 178 -98 292 -284 292h-32z" />
    <glyph glyph-name="eth" unicode="&#xf0;" horiz-adv-x="605" 
d="M225 731l72 -69l113 38l16 -45l-90 -30l120 -114c85 -79 121 -154 121 -246c0 -162 -123 -274 -275 -274c-153 0 -274 107 -274 274c0 165 121 275 275 275c19 0 39 -3 52 -7l-75 74l-136 -45l-16 44l114 38l-88 87h71zM89 265c0 -132 90 -223 214 -223
c123 0 213 91 213 223c0 130 -90 225 -214 225s-213 -94 -213 -225z" />
    <glyph glyph-name="Lslash" unicode="&#x141;" horiz-adv-x="372" 
d="M350 0h-284v230l-55 -35v58l55 35v404h59v-365l151 98v-60l-151 -97v-214h225v-54z" />
    <glyph glyph-name="lslash" unicode="&#x142;" horiz-adv-x="182" 
d="M120 731v-239l54 43v-64l-54 -43v-428h-58v383l-52 -41v62l52 41v286h58z" />
    <glyph glyph-name="Scaron" unicode="&#x160;" horiz-adv-x="468" 
d="M111 536c0 -56 29 -89 70 -112c49 -27 102 -41 151 -68c64 -36 104 -91 104 -175c0 -108 -77 -193 -199 -193c-141 0 -205 91 -205 213h59c1 -91 42 -161 146 -161c80 0 139 49 139 137c0 64 -30 101 -75 127c-50 29 -106 42 -157 72c-56 33 -91 81 -91 161
c0 91 68 168 180 168c136 0 183 -95 182 -183h-54c-4 75 -44 133 -129 133c-78 0 -121 -50 -121 -119zM263 733h-58l-113 123h64l79 -84l79 84h62z" />
    <glyph glyph-name="scaron" unicode="&#x161;" horiz-adv-x="377" 
d="M93 409c0 -43 20 -67 59 -85c33 -15 63 -19 100 -34c66 -27 104 -69 104 -147c0 -93 -74 -149 -169 -149c-121 0 -167 78 -167 169h57c2 -66 29 -119 113 -120c57 -1 108 32 108 96c0 57 -29 83 -72 100c-34 14 -70 21 -104 37c-64 31 -86 74 -86 130
c0 82 62 135 152 135c112 0 151 -74 152 -155h-55c-3 66 -34 107 -98 107c-56 0 -94 -30 -94 -84zM218 584h-59l-106 139h58l78 -98l77 98h58z" />
    <glyph glyph-name="Yacute" unicode="&#xdd;" horiz-adv-x="453" 
d="M197 363l-197 329h68l160 -270l160 270h65l-197 -329v-363h-59v363zM271 856h60l-77 -123h-59z" />
    <glyph glyph-name="yacute" unicode="&#xfd;" horiz-adv-x="498" 
d="M214 -175h-59l70 175l-227 535h65l193 -461l181 461h63zM300 717h59l-80 -132h-58z" />
    <glyph glyph-name="Thorn" unicode="&#xde;" horiz-adv-x="431" 
d="M402 356c0 -118 -81 -182 -195 -182h-86v-174h-59v692h59v-157h86c121 0 195 -59 195 -179zM207 482h-86v-256h86c88 0 133 49 133 130c0 79 -43 126 -133 126z" />
    <glyph glyph-name="thorn" unicode="&#xfe;" 
d="M113 267c0 -132 88 -225 212 -225s212 93 212 225c0 131 -88 226 -212 226s-212 -95 -212 -226zM116 95v-270h-58v906h58v-296c35 54 108 109 210 109c157 0 271 -111 271 -276c0 -157 -109 -277 -273 -277c-115 0 -185 66 -208 104z" />
    <glyph glyph-name="Zcaron" unicode="&#x17d;" horiz-adv-x="594" 
d="M564 0h-534v53l456 584h-448v55h526v-53l-460 -584h460v-55zM329 733h-58l-113 123h64l79 -84l79 84h62z" />
    <glyph glyph-name="zcaron" unicode="&#x17e;" horiz-adv-x="447" 
d="M423 485l-334 -435h334v-50h-399v50l329 435h-320v50h390v-50zM260 584h-59l-106 139h58l78 -98l77 98h58z" />
    <glyph glyph-name="onehalf" unicode="&#xbd;" horiz-adv-x="652" 
d="M610 0h-218v45l123 136c23 26 38 49 38 78c0 32 -19 55 -54 55c-44 0 -54 -34 -53 -57h-52c-2 47 23 106 105 106c71 0 107 -46 107 -103c0 -44 -18 -72 -51 -108l-96 -104h151v-48zM581 692l-518 -692h-57l517 692h58zM152 692v-357h-52v305l-41 -18v50l44 20h49z" />
    <glyph glyph-name="onequarter" unicode="&#xbc;" horiz-adv-x="628" 
d="M588 115h-41v-115h-52v115h-169v44l169 198h52v-196h41v-46zM495 289l-111 -128h111v128zM152 692v-357h-52v305l-41 -18v50l44 20h49zM581 692l-518 -692h-57l517 692h58z" />
    <glyph glyph-name="onesuperior" unicode="&#xb9;" horiz-adv-x="171" 
d="M113 692v-357h-52v305l-41 -18v50l44 20h49z" />
    <glyph glyph-name="threequarters" unicode="&#xbe;" horiz-adv-x="701" 
d="M661 115h-41v-115h-52v115h-169v44l169 198h52v-196h41v-46zM568 289l-111 -128h111v128zM653 692l-518 -692h-57l517 692h58zM107 503v42l85 99h-135v48h199v-48l-87 -98c52 -3 100 -35 100 -102c0 -69 -51 -114 -114 -114c-83 0 -115 57 -115 111h52
c0 -39 23 -64 63 -64c37 0 61 23 61 64c0 42 -27 62 -70 62h-39z" />
    <glyph glyph-name="threesuperior" unicode="&#xb3;" horiz-adv-x="302" 
d="M100 503v42l85 99h-135v48h199v-48l-87 -98c52 -3 100 -35 100 -102c0 -69 -51 -114 -114 -114c-83 0 -115 57 -115 111h52c0 -39 23 -64 63 -64c37 0 61 23 61 64c0 42 -27 62 -70 62h-39z" />
    <glyph glyph-name="twosuperior" unicode="&#xb2;" horiz-adv-x="290" 
d="M258 335h-218v45l123 136c23 26 38 49 38 78c0 32 -19 55 -54 55c-44 0 -54 -34 -53 -57h-52c-2 47 23 106 105 106c71 0 107 -46 107 -103c0 -44 -18 -72 -51 -108l-96 -104h151v-48z" />
    <glyph glyph-name="brokenbar" unicode="&#xa6;" horiz-adv-x="209" 
d="M132 254v-429h-55v429h55zM132 731v-418h-55v418h55z" />
    <glyph glyph-name="minus" unicode="&#x2212;" horiz-adv-x="455" 
d="M20 312v49h415v-49h-415z" />
    <glyph glyph-name="multiply" unicode="&#xd7;" horiz-adv-x="391" 
d="M22 471l37 37l136 -138l137 138l35 -35l-137 -138l139 -139l-36 -35l-139 138l-136 -136l-35 35l136 136z" />
    <glyph glyph-name="space" unicode=" " horiz-adv-x="156" 
 />
    <glyph glyph-name="exclam" unicode="!" horiz-adv-x="190" 
d="M125 692v-537h-59v537h59zM95 -7c-27 0 -49 21 -49 49s22 49 49 49s49 -21 49 -49s-22 -49 -49 -49z" />
    <glyph glyph-name="quotedbl" unicode="&#x22;" horiz-adv-x="234" 
d="M30 692h56v-206h-56v206zM148 692h56v-206h-56v206z" />
    <glyph glyph-name="numbersign" unicode="#" horiz-adv-x="553" 
d="M472 201h-109l-48 -201h-58l48 201h-135l-49 -201h-58l49 201h-95v52h107l53 215h-95v52h108l42 172h58l-42 -172h134l42 172h58l-42 -172h96v-52h-108l-52 -215h96v-52zM235 468l-53 -215h136l52 215h-135z" />
    <glyph glyph-name="dollar" unicode="$" horiz-adv-x="468" 
d="M261 763v-60c112 -13 152 -100 151 -181h-54c-4 64 -34 117 -97 130v-263c25 -9 49 -20 70 -31c65 -36 105 -88 105 -176c0 -101 -68 -182 -175 -193v-57h-51v57c-120 11 -178 98 -178 212h59c2 -83 36 -149 119 -161v304c-25 9 -48 20 -67 31c-59 33 -93 81 -93 162
c0 85 60 158 160 167v59h51zM303 304c-13 7 -27 14 -42 20v-284c67 9 115 58 115 137c0 64 -28 100 -73 127zM108 536c0 -57 29 -89 69 -112c10 -6 21 -11 33 -16v246c-66 -7 -102 -55 -102 -118z" />
    <glyph glyph-name="percent" unicode="%" horiz-adv-x="767" 
d="M459 156c0 -65 44 -115 112 -115c70 0 111 50 111 115c0 66 -43 116 -114 116c-66 0 -109 -50 -109 -116zM405 156c0 90 67 163 163 163c101 0 168 -72 168 -163c0 -89 -68 -162 -166 -162c-97 0 -165 71 -165 162zM683 691l-536 -691h-58l536 691h58zM85 536
c0 -65 44 -115 112 -115c70 0 111 50 111 115c0 66 -43 116 -114 116c-66 0 -109 -50 -109 -116zM31 536c0 90 67 163 163 163c101 0 168 -72 168 -163c0 -89 -68 -162 -166 -162c-97 0 -165 71 -165 162z" />
    <glyph glyph-name="ampersand" unicode="&#x26;" horiz-adv-x="614" 
d="M540 0l-69 69c-45 -48 -110 -79 -198 -79c-143 0 -233 85 -233 200c0 85 47 150 116 187c-50 31 -84 83 -84 150c0 84 61 176 182 176c115 0 187 -74 187 -175c0 -103 -72 -171 -172 -176l197 -201c34 61 46 141 40 220h54c6 -86 -8 -184 -56 -259l110 -112h-74zM273 42
c71 0 123 24 161 64l-236 238c-63 -30 -97 -83 -97 -154c0 -84 71 -148 172 -148zM132 526c0 -73 53 -125 126 -125c74 0 124 52 124 126c0 73 -52 125 -127 125c-76 0 -123 -53 -123 -126z" />
    <glyph glyph-name="quotesingle" unicode="'" horiz-adv-x="116" 
d="M30 692h56v-206h-56v206z" />
    <glyph glyph-name="parenleft" unicode="(" horiz-adv-x="228" 
d="M61 -46v672c0 92 36 129 122 129h33v-48h-28c-66 0 -71 -35 -71 -86v-662c0 -51 5 -86 71 -86h28v-48h-33c-86 0 -122 37 -122 129z" />
    <glyph glyph-name="parenright" unicode=")" horiz-adv-x="228" 
d="M167 626v-672c0 -92 -36 -129 -122 -129h-33v48h28c66 0 71 35 71 86v662c0 51 -5 86 -71 86h-28v48h33c86 0 122 -37 122 -129z" />
    <glyph glyph-name="asterisk" unicode="*" horiz-adv-x="380" 
d="M35 591l23 39l109 -66v128h46v-129l110 67l22 -37l-113 -67l113 -66l-22 -38l-110 65v-127h-46v128l-109 -66l-22 37l112 66z" />
    <glyph glyph-name="plus" unicode="+" horiz-adv-x="455" 
d="M20 312v49h181v185h54v-185h180v-49h-180v-185h-54v185h-181z" />
    <glyph glyph-name="comma" unicode="," horiz-adv-x="158" 
d="M30 -108l41 103c-27 5 -41 25 -41 47c0 29 21 49 49 49c27 0 48 -21 48 -49c0 -19 -7 -35 -16 -57l-36 -93h-45z" />
    <glyph glyph-name="hyphen" unicode="-" horiz-adv-x="260" 
d="M40 258v56h180v-56h-180z" />
    <glyph glyph-name="period" unicode="." horiz-adv-x="158" 
d="M79 -7c-27 0 -49 21 -49 49s22 49 49 49s49 -21 49 -49s-22 -49 -49 -49z" />
    <glyph glyph-name="slash" unicode="/" horiz-adv-x="442" 
d="M432 731l-366 -906h-56l366 906h56z" />
    <glyph glyph-name="zero" unicode="0" horiz-adv-x="508" 
d="M396 493c0 93 -49 159 -142 159c-98 0 -142 -64 -142 -159v-296c0 -93 44 -156 142 -156c93 0 142 65 142 156v296zM455 493v-294c0 -126 -76 -212 -201 -212c-137 0 -201 83 -201 212v294c0 129 66 213 201 213c127 0 201 -87 201 -213z" />
    <glyph glyph-name="one" unicode="1" horiz-adv-x="205" 
d="M146 692v-692h-59v631l-74 -30v56l78 35h55z" />
    <glyph glyph-name="two" unicode="2" horiz-adv-x="443" 
d="M418 0h-389v55l245 290c48 56 72 106 72 170c0 78 -42 137 -128 137c-103 0 -124 -78 -125 -141h-58c-2 98 50 195 183 195c125 0 190 -83 190 -191c0 -79 -31 -139 -90 -206l-218 -254h318v-55z" />
    <glyph glyph-name="three" unicode="3" horiz-adv-x="456" 
d="M150 343v45l180 249h-284v55h354v-54l-180 -243c116 -1 211 -65 211 -203c0 -116 -85 -205 -205 -205c-142 0 -203 93 -205 195h59c2 -85 55 -141 145 -141c93 0 147 67 147 151c0 95 -59 151 -164 151h-58z" />
    <glyph glyph-name="four" unicode="4" horiz-adv-x="472" 
d="M461 241h-87v-241h-59v241h-304v53l306 398h57v-396h87v-55zM315 602l-236 -306h236v306z" />
    <glyph glyph-name="five" unicode="5" horiz-adv-x="465" 
d="M35 182h59c5 -80 41 -141 137 -141c92 0 141 63 141 160v30c0 92 -40 155 -136 155c-73 0 -108 -32 -125 -63h-58v369h341v-55h-283v-243c27 28 71 47 127 47c131 0 193 -81 193 -213v-25c0 -129 -74 -216 -200 -216c-138 0 -193 87 -196 195z" />
    <glyph glyph-name="six" unicode="6" horiz-adv-x="493" 
d="M432 605l-45 -30c-28 44 -65 77 -137 77c-98 0 -138 -65 -138 -159v-109c25 40 77 69 146 69c134 0 197 -81 197 -209v-44c0 -126 -76 -213 -201 -213c-137 0 -201 84 -201 213v293c0 120 63 213 197 213c106 0 156 -50 182 -101zM256 398c-91 0 -142 -58 -144 -145v-55
c0 -93 44 -157 142 -157c93 0 142 66 142 157v48c0 93 -43 152 -140 152z" />
    <glyph glyph-name="seven" unicode="7" horiz-adv-x="426" 
d="M400 639l-258 -639h-62l258 637h-323v55h385v-53z" />
    <glyph glyph-name="eight" unicode="8" horiz-adv-x="472" 
d="M103 520c0 -78 54 -134 133 -134s133 56 133 134s-53 133 -133 133s-133 -55 -133 -133zM42 520c0 107 78 186 194 186s194 -77 194 -186c0 -72 -40 -130 -93 -158c64 -30 107 -92 107 -176c0 -115 -91 -199 -209 -199c-122 0 -207 80 -207 199c0 83 43 144 104 175
c-52 29 -90 85 -90 159zM89 187c0 -83 56 -147 146 -147c88 0 148 62 148 147c0 86 -60 148 -149 148c-92 0 -145 -63 -145 -148z" />
    <glyph glyph-name="nine" unicode="9" horiz-adv-x="493" 
d="M61 88l45 30c28 -44 65 -77 137 -77c99 0 138 65 138 159v108c-26 -39 -76 -68 -141 -68c-136 0 -202 81 -202 209v44c0 126 74 213 199 213c137 0 203 -82 203 -210v-296c0 -120 -62 -213 -197 -213c-106 0 -156 49 -182 101zM240 295c89 0 138 58 141 145v55
c0 96 -47 157 -144 157c-92 0 -140 -66 -140 -157v-48c0 -93 46 -152 143 -152z" />
    <glyph glyph-name="colon" unicode=":" horiz-adv-x="158" 
d="M79 -7c-27 0 -49 21 -49 49s22 49 49 49s49 -21 49 -49s-22 -49 -49 -49zM79 342c-27 0 -49 21 -49 49s22 49 49 49s49 -21 49 -49s-22 -49 -49 -49z" />
    <glyph glyph-name="semicolon" unicode=";" horiz-adv-x="158" 
d="M81 342c-27 0 -49 21 -49 49s22 49 49 49s49 -21 49 -49s-22 -49 -49 -49zM30 -108l41 103c-27 5 -41 25 -41 47c0 29 21 49 49 49c27 0 48 -21 48 -49c0 -19 -7 -35 -16 -57l-36 -93h-45z" />
    <glyph glyph-name="less" unicode="&#x3c;" horiz-adv-x="409" 
d="M23 310v56l362 170v-55l-307 -143l307 -146v-52z" />
    <glyph glyph-name="equal" unicode="=" horiz-adv-x="473" 
d="M29 382v49h415v-49h-415zM29 234v49h415v-49h-415z" />
    <glyph glyph-name="greater" unicode="&#x3e;" horiz-adv-x="409" 
d="M386 366v-56l-362 -170v52l307 146l-307 143v55z" />
    <glyph glyph-name="question" unicode="?" horiz-adv-x="452" 
d="M240 322v-167h-59v215h34c85 0 149 44 149 137c0 86 -55 144 -140 144c-117 0 -141 -101 -140 -157h-57c-3 68 30 209 196 209c130 0 203 -87 203 -195c0 -101 -71 -182 -186 -186zM210 -7c-27 0 -49 21 -49 49s22 49 49 49s49 -21 49 -49s-22 -49 -49 -49z" />
    <glyph glyph-name="at" unicode="@" horiz-adv-x="955" 
d="M633 155c-22 -37 -81 -84 -169 -84c-123 0 -211 87 -211 212c0 122 90 213 211 213c73 0 133 -31 160 -69v62h58v-278c0 -53 18 -87 73 -87c61 0 112 77 112 213c0 210 -153 348 -382 348c-247 0 -394 -182 -394 -400c0 -240 169 -395 418 -395c120 0 209 43 278 104
l32 -37c-56 -57 -168 -119 -312 -119c-301 0 -477 194 -477 448c0 256 186 451 458 451c275 0 438 -180 438 -400c0 -178 -80 -265 -176 -265c-73 0 -106 40 -117 83zM314 283c0 -95 62 -160 151 -160c88 0 161 59 161 160s-73 161 -162 161s-150 -66 -150 -161z" />
    <glyph glyph-name="A" unicode="A" horiz-adv-x="616" 
d="M553 0l-107 263h-283l-103 -263h-58l270 692h61l281 -692h-61zM302 617l-118 -301h240z" />
    <glyph glyph-name="B" unicode="B" horiz-adv-x="453" 
d="M423 196c0 -125 -87 -196 -207 -196h-154v692h145c121 0 195 -57 195 -177c0 -70 -32 -123 -85 -150c64 -23 106 -81 106 -169zM214 333h-93v-280h93c98 0 147 58 147 143c0 83 -47 137 -147 137zM207 639h-86v-255h86c88 0 133 49 133 129c0 79 -43 126 -133 126z" />
    <glyph glyph-name="C" unicode="C" horiz-adv-x="620" 
d="M574 118l33 -39c-38 -39 -117 -92 -227 -92c-204 0 -350 148 -350 359s145 360 348 360c83 0 162 -26 218 -79l-35 -41c-49 42 -114 66 -184 66c-172 0 -286 -126 -286 -306s121 -305 290 -305c91 0 153 41 193 77z" />
    <glyph glyph-name="D" unicode="D" horiz-adv-x="529" 
d="M121 638v-584h32c186 0 284 113 284 292c0 178 -98 292 -284 292h-32zM62 692h91c219 0 346 -139 346 -346c0 -205 -128 -346 -347 -346h-90v692z" />
    <glyph glyph-name="E" unicode="E" horiz-adv-x="389" 
d="M350 0h-288v692h286v-54h-227v-253h221v-54h-221v-277h229v-54z" />
    <glyph glyph-name="F" unicode="F" horiz-adv-x="384" 
d="M342 331h-221v-331h-59v692h286v-54h-227v-253h221v-54z" />
    <glyph glyph-name="G" unicode="G" horiz-adv-x="705" 
d="M650 342v-342h-58v60c-43 -37 -119 -73 -213 -73c-201 0 -349 147 -349 359s149 360 350 360c132 0 216 -61 255 -111l-40 -37c-41 46 -108 94 -215 94c-169 0 -288 -126 -288 -306c0 -181 119 -305 288 -305c88 0 160 31 212 83v164h-140v54h198z" />
    <glyph glyph-name="H" unicode="H" horiz-adv-x="624" 
d="M562 692v-692h-59v334h-382v-334h-59v692h59v-303h382v303h59z" />
    <glyph glyph-name="I" unicode="I" horiz-adv-x="183" 
d="M121 692v-692h-59v692h59z" />
    <glyph glyph-name="J" unicode="J" horiz-adv-x="238" 
d="M177 692v-573c0 -74 -25 -120 -119 -120c-23 0 -39 1 -39 1v52h39c49 0 60 28 60 68v572h59z" />
    <glyph glyph-name="K" unicode="K" horiz-adv-x="493" 
d="M121 692v-314l287 314h73l-304 -330l319 -362h-74l-301 335v-335h-59v692h59z" />
    <glyph glyph-name="L" unicode="L" horiz-adv-x="368" 
d="M346 0h-284v692h59v-638h225v-54z" />
    <glyph glyph-name="M" unicode="M" horiz-adv-x="827" 
d="M706 606l-262 -606h-62l-264 606v-606h-56v692h84l269 -629l269 629h81v-692h-59v606z" />
    <glyph glyph-name="N" unicode="N" horiz-adv-x="648" 
d="M525 0l-404 591v-591h-59v692h61l404 -595v595h59v-692h-61z" />
    <glyph glyph-name="O" unicode="O" horiz-adv-x="759" 
d="M30 346c0 212 150 360 349 360c201 0 350 -151 350 -360c0 -207 -150 -359 -351 -359c-200 0 -348 147 -348 359zM91 346c0 -181 120 -305 288 -305s289 124 289 305c0 180 -121 306 -289 306s-288 -126 -288 -306z" />
    <glyph glyph-name="P" unicode="P" horiz-adv-x="430" 
d="M402 514c0 -118 -82 -184 -195 -184h-86v-330h-59v692h145c121 0 195 -58 195 -178zM207 639h-86v-256h86c88 0 133 50 133 130c0 79 -43 126 -133 126z" />
    <glyph glyph-name="Q" unicode="Q" horiz-adv-x="759" 
d="M30 346c0 212 150 360 349 360c201 0 350 -151 350 -360c0 -103 -37 -192 -98 -255l63 -60l-41 -42l-66 63c-58 -41 -130 -65 -209 -65c-200 0 -348 147 -348 359zM91 346c0 -181 120 -305 288 -305c64 0 121 18 167 50l-72 70l40 42l76 -73c49 53 78 128 78 216
c0 180 -121 306 -289 306s-288 -126 -288 -306z" />
    <glyph glyph-name="R" unicode="R" horiz-adv-x="461" 
d="M402 514c0 -90 -48 -149 -120 -173l183 -341h-63l-179 330h-102v-330h-59v692h145c121 0 195 -58 195 -178zM207 639h-86v-256h86c88 0 133 50 133 130c0 79 -43 126 -133 126z" />
    <glyph glyph-name="S" unicode="S" horiz-adv-x="468" 
d="M111 536c0 -56 29 -89 70 -112c49 -27 102 -41 151 -68c64 -36 104 -91 104 -175c0 -108 -77 -193 -199 -193c-141 0 -205 91 -205 213h59c1 -91 42 -161 146 -161c80 0 139 49 139 137c0 64 -30 101 -75 127c-50 29 -106 42 -157 72c-56 33 -91 81 -91 161
c0 91 68 168 180 168c136 0 183 -95 182 -183h-54c-4 75 -44 133 -129 133c-78 0 -121 -50 -121 -119z" />
    <glyph glyph-name="T" unicode="T" horiz-adv-x="408" 
d="M390 638h-158v-638h-59v638h-155v54h372v-54z" />
    <glyph glyph-name="U" unicode="U" horiz-adv-x="613" 
d="M307 -13c-169 0 -250 105 -250 265v440h59v-439c0 -128 58 -212 191 -212c124 0 191 88 191 212v439h58v-440c0 -154 -94 -265 -249 -265z" />
    <glyph glyph-name="V" unicode="V" horiz-adv-x="621" 
d="M280 0l-278 692h66l244 -620l244 620h63l-278 -692h-61z" />
    <glyph glyph-name="W" unicode="W" horiz-adv-x="976" 
d="M687 0l-197 610l-198 -610h-60l-227 692h63l195 -608l195 608h65l194 -608l195 608h59l-225 -692h-59z" />
    <glyph glyph-name="X" unicode="X" horiz-adv-x="600" 
d="M2 0l262 361l-242 331h73l205 -282l205 282h70l-240 -329l263 -363h-68l-232 314l-229 -314h-67z" />
    <glyph glyph-name="Y" unicode="Y" horiz-adv-x="453" 
d="M197 363l-197 329h68l160 -270l160 270h65l-197 -329v-363h-59v363z" />
    <glyph glyph-name="Z" unicode="Z" horiz-adv-x="594" 
d="M564 0h-534v53l456 584h-448v55h526v-53l-460 -584h460v-55z" />
    <glyph glyph-name="bracketleft" unicode="[" horiz-adv-x="228" 
d="M61 -175v930h155v-48h-99v-834h99v-48h-155z" />
    <glyph glyph-name="backslash" unicode="\" horiz-adv-x="442" 
d="M376 -175l-366 906h56l366 -906h-56z" />
    <glyph glyph-name="bracketright" unicode="]" horiz-adv-x="228" 
d="M167 755v-930h-155v48h99v834h-99v48h155z" />
    <glyph glyph-name="asciicircum" unicode="^" horiz-adv-x="413" 
d="M237 692l166 -307h-60l-136 252l-137 -252h-60l167 307h60z" />
    <glyph glyph-name="underscore" unicode="_" horiz-adv-x="631" 
d="M36 -108v49h559v-49h-559z" />
    <glyph glyph-name="grave" unicode="`" horiz-adv-x="476" 
d="M141 717h58l77 -132h-57z" />
    <glyph glyph-name="a" unicode="a" horiz-adv-x="449" 
d="M31 164c0 100 72 174 178 174c60 0 106 -26 127 -53v71c0 89 -43 137 -120 137c-80 0 -110 -51 -112 -107h-55c1 85 56 155 169 155c118 0 175 -73 175 -188v-353h-57v49c-25 -33 -67 -58 -127 -58c-101 0 -178 67 -178 173zM88 164c0 -71 49 -125 124 -125
c73 0 126 53 126 125s-53 126 -127 126c-76 0 -123 -54 -123 -126z" />
    <glyph glyph-name="b" unicode="b" 
d="M113 267c0 -132 88 -224 212 -224s212 92 212 224c0 131 -88 225 -212 225s-212 -94 -212 -225zM116 95v-95h-58v731h58v-296c35 54 108 109 210 109c157 0 271 -111 271 -276c0 -157 -109 -277 -273 -277c-115 0 -185 66 -208 104z" />
    <glyph glyph-name="c" unicode="c" horiz-adv-x="526" 
d="M301 43c81 0 131 34 172 78l36 -31c-32 -43 -101 -99 -209 -99c-161 0 -272 118 -272 276s116 277 272 277c112 0 178 -54 207 -96l-40 -33c-38 44 -91 77 -168 77c-123 0 -210 -96 -210 -225c0 -132 93 -224 212 -224z" />
    <glyph glyph-name="d" unicode="d" 
d="M509 0v104c-24 -47 -96 -113 -209 -113c-158 0 -272 111 -272 276c0 160 117 277 272 277c93 0 173 -47 209 -106v293h58v-731h-58zM88 267c0 -132 89 -224 212 -224s212 92 212 224c0 131 -89 225 -212 225s-212 -94 -212 -225z" />
    <glyph glyph-name="e" unicode="e" horiz-adv-x="573" 
d="M549 251h-461c7 -128 87 -208 209 -208c101 0 159 50 199 133l45 -20c-38 -94 -121 -165 -244 -165c-159 0 -269 111 -269 276c0 162 109 277 261 277c153 0 257 -99 261 -260c0 -7 0 -22 -1 -33zM287 492c-107 0 -185 -70 -197 -191h399c-5 123 -89 191 -202 191z" />
    <glyph glyph-name="f" unicode="f" horiz-adv-x="244" 
d="M126 580v-45h105v-51h-105v-484h-58v484h-58v51h58v43c0 93 36 153 138 153h28v-51h-27c-69 0 -81 -43 -81 -100z" />
    <glyph glyph-name="g" unicode="g" 
d="M509 438v97h58v-443c0 -202 -126 -274 -274 -274c-99 0 -176 34 -218 66l30 46c37 -27 101 -60 189 -60c116 0 215 56 215 207v27c-24 -47 -96 -113 -209 -113c-158 0 -272 111 -272 276c0 160 117 277 272 277c93 0 173 -47 209 -106zM88 267c0 -132 89 -224 212 -224
s212 92 212 224c0 131 -89 225 -212 225s-212 -94 -212 -225z" />
    <glyph glyph-name="h" unicode="h" horiz-adv-x="468" 
d="M354 0v349c0 88 -37 140 -116 140c-80 0 -122 -58 -122 -145v-344h-58v731h58v-255c18 31 60 65 128 65c120 0 168 -83 168 -187v-354h-58z" />
    <glyph glyph-name="i" unicode="i" horiz-adv-x="174" 
d="M116 535v-535h-58v535h58zM87 605c-26 0 -47 20 -47 47s21 47 47 47s47 -20 47 -47s-21 -47 -47 -47z" />
    <glyph glyph-name="j" unicode="j" horiz-adv-x="174" 
d="M116 535v-557c0 -93 -34 -153 -138 -153h-22v51h21c69 0 81 43 81 100v559h58zM87 605c-26 0 -47 20 -47 47s21 47 47 47s47 -20 47 -47s-21 -47 -47 -47z" />
    <glyph glyph-name="k" unicode="k" horiz-adv-x="431" 
d="M423 535l-245 -252l254 -283h-74l-242 266v-266h-58v731h58v-438l231 242h76z" />
    <glyph glyph-name="l" unicode="l" horiz-adv-x="174" 
d="M116 731v-731h-58v731h58z" />
    <glyph glyph-name="m" unicode="m" horiz-adv-x="734" 
d="M397 350v-350h-58v349c0 86 -34 140 -109 140c-77 0 -114 -59 -114 -150v-339h-58v535h58v-59c20 34 57 65 123 65c76 0 118 -38 137 -83c25 47 70 83 140 83c117 0 162 -82 162 -185v-356h-58v350c0 86 -34 139 -110 139c-73 0 -112 -55 -113 -139z" />
    <glyph glyph-name="n" unicode="n" horiz-adv-x="468" 
d="M354 0v349c0 88 -37 140 -116 140c-80 0 -122 -58 -122 -145v-344h-58v535h58v-56c17 28 60 62 128 62c120 0 168 -83 168 -187v-354h-58z" />
    <glyph glyph-name="o" unicode="o" horiz-adv-x="603" 
d="M88 267c0 -132 89 -224 213 -224c123 0 214 92 214 224c0 130 -90 225 -214 225s-213 -94 -213 -225zM28 267c0 166 122 277 274 277c153 0 273 -114 273 -277c0 -162 -123 -276 -275 -276c-153 0 -272 109 -272 276z" />
    <glyph glyph-name="p" unicode="p" 
d="M113 267c0 -132 88 -224 212 -224s212 92 212 224c0 131 -88 225 -212 225s-212 -94 -212 -225zM116 95v-270h-58v710h58v-100c35 54 108 109 210 109c157 0 271 -111 271 -276c0 -157 -109 -277 -273 -277c-115 0 -185 66 -208 104z" />
    <glyph glyph-name="q" unicode="q" 
d="M509 -175v279c-24 -47 -96 -113 -209 -113c-158 0 -272 111 -272 276c0 160 117 277 272 277c93 0 173 -47 209 -106v97h58v-710h-58zM88 267c0 -132 89 -224 212 -224s212 92 212 224c0 131 -89 225 -212 225s-212 -94 -212 -225z" />
    <glyph glyph-name="r" unicode="r" horiz-adv-x="270" 
d="M250 535v-57h-19c-77 0 -115 -49 -115 -132v-346h-58v535h58v-60c18 31 59 61 134 60z" />
    <glyph glyph-name="s" unicode="s" horiz-adv-x="377" 
d="M93 409c0 -43 20 -67 59 -85c33 -15 63 -19 100 -34c66 -27 104 -69 104 -147c0 -93 -74 -149 -169 -149c-121 0 -167 78 -167 169h57c2 -66 29 -119 113 -120c57 -1 108 32 108 96c0 57 -29 83 -72 100c-34 14 -70 21 -104 37c-64 31 -86 74 -86 130
c0 82 62 135 152 135c112 0 151 -74 152 -155h-55c-3 66 -34 107 -98 107c-56 0 -94 -30 -94 -84z" />
    <glyph glyph-name="t" unicode="t" horiz-adv-x="256" 
d="M126 616v-81h114v-51h-114v-350c0 -54 7 -85 68 -85h45v-51c-13 -1 -34 -2 -51 -2c-98 0 -120 46 -120 128v360h-58v51h58v81h58z" />
    <glyph glyph-name="u" unicode="u" horiz-adv-x="464" 
d="M113 535v-348c0 -88 37 -140 114 -140c79 0 121 58 121 145v343h58v-535h-58v58c-18 -32 -58 -64 -127 -64c-119 0 -166 83 -166 187v354h58z" />
    <glyph glyph-name="v" unicode="v" horiz-adv-x="497" 
d="M62 535l189 -468l187 468h61l-218 -535h-63l-220 535h64z" />
    <glyph glyph-name="w" unicode="w" horiz-adv-x="838" 
d="M452 535l163 -464l163 464h60l-193 -535h-63l-163 459l-164 -459h-63l-192 535h62l163 -464l163 464h64z" />
    <glyph glyph-name="x" unicode="x" horiz-adv-x="504" 
d="M435 0l-183 232l-183 -232h-69l217 276l-203 259h73l166 -213l167 213h70l-203 -258l217 -277h-69z" />
    <glyph glyph-name="y" unicode="y" horiz-adv-x="498" 
d="M214 -175h-59l70 175l-227 535h65l193 -461l181 461h63z" />
    <glyph glyph-name="z" unicode="z" horiz-adv-x="447" 
d="M423 485l-334 -435h334v-50h-399v50l329 435h-320v50h390v-50z" />
    <glyph glyph-name="braceleft" unicode="{" horiz-adv-x="254" 
d="M143 -41c0 -51 5 -86 71 -86h28v-48h-33c-86 0 -122 37 -122 129v244c0 43 -5 67 -55 67h-6v49h6c50 0 55 24 55 67v245c0 92 36 129 122 129h33v-48h-28c-66 0 -71 -35 -71 -86v-230c0 -68 -13 -91 -43 -101c29 -9 43 -32 43 -102v-229z" />
    <glyph glyph-name="bar" unicode="|" horiz-adv-x="209" 
d="M132 731v-906h-55v906h55z" />
    <glyph glyph-name="braceright" unicode="}" horiz-adv-x="254" 
d="M111 -41v229c0 70 14 93 43 102c-30 10 -43 33 -43 101v230c0 51 -5 86 -71 86h-28v48h33c86 0 122 -37 122 -129v-245c0 -43 5 -67 55 -67h6v-49h-6c-50 0 -55 -24 -55 -67v-244c0 -92 -36 -129 -122 -129h-33v48h28c66 0 71 35 71 86z" />
    <glyph glyph-name="asciitilde" unicode="~" horiz-adv-x="473" 
d="M223 282c-32 22 -53 38 -84 38c-48 0 -61 -42 -65 -77h-51c1 59 32 128 117 128c39 0 68 -13 110 -42c31 -22 53 -38 84 -38c48 0 61 42 65 77h51c-1 -59 -32 -128 -117 -128c-39 0 -68 13 -110 42z" />
    <glyph glyph-name="Adieresis" unicode="&#xc4;" horiz-adv-x="616" 
d="M553 0l-107 263h-283l-103 -263h-58l270 692h61l281 -692h-61zM302 617l-118 -301h240zM214 749c-26 0 -46 20 -46 46c0 25 20 46 46 46c24 0 46 -21 46 -46c0 -26 -22 -46 -46 -46zM391 749c-26 0 -46 20 -46 46c0 25 20 46 46 46c24 0 46 -21 46 -46
c0 -26 -22 -46 -46 -46z" />
    <glyph glyph-name="Aring" unicode="&#xc5;" horiz-adv-x="616" 
d="M553 0l-107 263h-283l-103 -263h-58l270 692h61l281 -692h-61zM302 617l-118 -301h240zM205 816c0 56 40 96 96 96c62 0 99 -40 99 -94c0 -56 -39 -96 -98 -96c-58 0 -97 40 -97 94zM250 816c0 -30 20 -52 52 -52c35 0 53 22 53 54c0 30 -18 52 -54 52
c-31 0 -51 -22 -51 -54z" />
    <glyph glyph-name="Ccedilla" unicode="&#xc7;" horiz-adv-x="620" 
d="M574 118l33 -39c-38 -39 -117 -92 -227 -92c-14 0 -27 1 -38 2v-31c64 -8 92 -46 92 -100c0 -69 -53 -103 -117 -103h-20v46h20c37 0 67 14 67 57c0 39 -25 56 -67 56h-20v82c-160 34 -267 169 -267 350c0 211 145 360 348 360c83 0 162 -26 218 -79l-35 -41
c-49 42 -114 66 -184 66c-172 0 -286 -126 -286 -306s121 -305 290 -305c91 0 153 41 193 77z" />
    <glyph glyph-name="Eacute" unicode="&#xc9;" horiz-adv-x="389" 
d="M350 0h-288v692h286v-54h-227v-253h221v-54h-221v-277h229v-54zM241 856h60l-77 -123h-59z" />
    <glyph glyph-name="Ntilde" unicode="&#xd1;" horiz-adv-x="648" 
d="M525 0l-404 591v-591h-59v692h61l404 -595v595h59v-692h-61zM406 744c-56 0 -81 51 -125 51c-24 0 -37 -19 -38 -49h-46c0 55 32 100 89 100c54 0 80 -51 123 -51c24 0 37 19 38 50h46c-1 -59 -35 -101 -87 -101z" />
    <glyph glyph-name="Odieresis" unicode="&#xd6;" horiz-adv-x="759" 
d="M30 346c0 212 150 360 349 360c201 0 350 -151 350 -360c0 -207 -150 -359 -351 -359c-200 0 -348 147 -348 359zM91 346c0 -181 120 -305 288 -305s289 124 289 305c0 180 -121 306 -289 306s-288 -126 -288 -306zM292 749c-26 0 -46 20 -46 46c0 25 20 46 46 46
c24 0 46 -21 46 -46c0 -26 -22 -46 -46 -46zM469 749c-26 0 -46 20 -46 46c0 25 20 46 46 46c24 0 46 -21 46 -46c0 -26 -22 -46 -46 -46z" />
    <glyph glyph-name="Udieresis" unicode="&#xdc;" horiz-adv-x="613" 
d="M307 -13c-169 0 -250 105 -250 265v440h59v-439c0 -128 58 -212 191 -212c124 0 191 88 191 212v439h58v-440c0 -154 -94 -265 -249 -265zM219 749c-26 0 -46 20 -46 46c0 25 20 46 46 46c24 0 46 -21 46 -46c0 -26 -22 -46 -46 -46zM396 749c-26 0 -46 20 -46 46
c0 25 20 46 46 46c24 0 46 -21 46 -46c0 -26 -22 -46 -46 -46z" />
    <glyph glyph-name="aacute" unicode="&#xe1;" horiz-adv-x="449" 
d="M31 164c0 100 72 174 178 174c60 0 106 -26 127 -53v71c0 89 -43 137 -120 137c-80 0 -110 -51 -112 -107h-55c1 85 56 155 169 155c118 0 175 -73 175 -188v-353h-57v49c-25 -33 -67 -58 -127 -58c-101 0 -178 67 -178 173zM88 164c0 -71 49 -125 124 -125
c73 0 126 53 126 125s-53 126 -127 126c-76 0 -123 -54 -123 -126zM271 717h59l-80 -132h-58z" />
    <glyph glyph-name="agrave" unicode="&#xe0;" horiz-adv-x="449" 
d="M31 164c0 100 72 174 178 174c60 0 106 -26 127 -53v71c0 89 -43 137 -120 137c-80 0 -110 -51 -112 -107h-55c1 85 56 155 169 155c118 0 175 -73 175 -188v-353h-57v49c-25 -33 -67 -58 -127 -58c-101 0 -178 67 -178 173zM88 164c0 -71 49 -125 124 -125
c73 0 126 53 126 125s-53 126 -127 126c-76 0 -123 -54 -123 -126zM108 717h58l77 -132h-57z" />
    <glyph glyph-name="acircumflex" unicode="&#xe2;" horiz-adv-x="449" 
d="M31 164c0 100 72 174 178 174c60 0 106 -26 127 -53v71c0 89 -43 137 -120 137c-80 0 -110 -51 -112 -107h-55c1 85 56 155 169 155c118 0 175 -73 175 -188v-353h-57v49c-25 -33 -67 -58 -127 -58c-101 0 -178 67 -178 173zM88 164c0 -71 49 -125 124 -125
c73 0 126 53 126 125s-53 126 -127 126c-76 0 -123 -54 -123 -126zM194 718h59l106 -139h-58l-77 96l-78 -96h-58z" />
    <glyph glyph-name="adieresis" unicode="&#xe4;" horiz-adv-x="449" 
d="M31 164c0 100 72 174 178 174c60 0 106 -26 127 -53v71c0 89 -43 137 -120 137c-80 0 -110 -51 -112 -107h-55c1 85 56 155 169 155c118 0 175 -73 175 -188v-353h-57v49c-25 -33 -67 -58 -127 -58c-101 0 -178 67 -178 173zM88 164c0 -71 49 -125 124 -125
c73 0 126 53 126 125s-53 126 -127 126c-76 0 -123 -54 -123 -126zM137 606c-26 0 -46 20 -46 46c0 25 20 46 46 46c24 0 46 -21 46 -46c0 -26 -22 -46 -46 -46zM294 606c-26 0 -46 20 -46 46c0 25 20 46 46 46c24 0 46 -21 46 -46c0 -26 -22 -46 -46 -46z" />
    <glyph glyph-name="atilde" unicode="&#xe3;" horiz-adv-x="449" 
d="M31 164c0 100 72 174 178 174c60 0 106 -26 127 -53v71c0 89 -43 137 -120 137c-80 0 -110 -51 -112 -107h-55c1 85 56 155 169 155c118 0 175 -73 175 -188v-353h-57v49c-25 -33 -67 -58 -127 -58c-101 0 -178 67 -178 173zM88 164c0 -71 49 -125 124 -125
c73 0 126 53 126 125s-53 126 -127 126c-76 0 -123 -54 -123 -126zM279 591c-56 0 -78 51 -122 51c-24 0 -35 -19 -36 -49h-46c0 55 30 100 87 100c54 0 78 -51 121 -51c24 0 35 19 36 50h46c-1 -59 -33 -101 -86 -101z" />
    <glyph glyph-name="aring" unicode="&#xe5;" horiz-adv-x="449" 
d="M31 164c0 100 72 174 178 174c60 0 106 -26 127 -53v71c0 89 -43 137 -120 137c-80 0 -110 -51 -112 -107h-55c1 85 56 155 169 155c118 0 175 -73 175 -188v-353h-57v49c-25 -33 -67 -58 -127 -58c-101 0 -178 67 -178 173zM88 164c0 -71 49 -125 124 -125
c73 0 126 53 126 125s-53 126 -127 126c-76 0 -123 -54 -123 -126zM121 659c0 56 40 96 96 96c62 0 99 -40 99 -94c0 -56 -39 -96 -98 -96c-58 0 -97 40 -97 94zM165 659c0 -30 20 -53 53 -53c36 0 54 23 54 55c0 30 -18 53 -55 53c-32 0 -52 -23 -52 -55z" />
    <glyph glyph-name="ccedilla" unicode="&#xe7;" horiz-adv-x="526" 
d="M256 -245h-20v46h20c37 0 67 14 67 57c0 39 -25 56 -67 56h-20v83c-127 27 -210 133 -210 270c0 158 116 277 272 277c112 0 178 -54 207 -96l-40 -33c-38 44 -91 77 -168 77c-123 0 -210 -96 -210 -225c0 -132 93 -224 212 -224c81 0 131 34 172 78l36 -31
c-32 -43 -101 -99 -209 -99c-6 0 -7 0 -17 1v-34c64 -8 92 -46 92 -100c0 -69 -53 -103 -117 -103z" />
    <glyph glyph-name="eacute" unicode="&#xe9;" horiz-adv-x="573" 
d="M549 251h-461c7 -128 87 -208 209 -208c101 0 159 50 199 133l45 -20c-38 -94 -121 -165 -244 -165c-159 0 -269 111 -269 276c0 162 109 277 261 277c153 0 257 -99 261 -260c0 -7 0 -22 -1 -33zM287 492c-107 0 -185 -70 -197 -191h399c-5 123 -89 191 -202 191z
M339 717h59l-80 -132h-58z" />
    <glyph glyph-name="egrave" unicode="&#xe8;" horiz-adv-x="573" 
d="M549 251h-461c7 -128 87 -208 209 -208c101 0 159 50 199 133l45 -20c-38 -94 -121 -165 -244 -165c-159 0 -269 111 -269 276c0 162 109 277 261 277c153 0 257 -99 261 -260c0 -7 0 -22 -1 -33zM287 492c-107 0 -185 -70 -197 -191h399c-5 123 -89 191 -202 191z
M189 717h58l77 -132h-57z" />
    <glyph glyph-name="ecircumflex" unicode="&#xea;" horiz-adv-x="573" 
d="M549 251h-461c7 -128 87 -208 209 -208c101 0 159 50 199 133l45 -20c-38 -94 -121 -165 -244 -165c-159 0 -269 111 -269 276c0 162 109 277 261 277c153 0 257 -99 261 -260c0 -7 0 -22 -1 -33zM287 492c-107 0 -185 -70 -197 -191h399c-5 123 -89 191 -202 191z
M260 718h59l106 -139h-58l-77 96l-78 -96h-58z" />
    <glyph glyph-name="edieresis" unicode="&#xeb;" horiz-adv-x="573" 
d="M549 251h-461c7 -128 87 -208 209 -208c101 0 159 50 199 133l45 -20c-38 -94 -121 -165 -244 -165c-159 0 -269 111 -269 276c0 162 109 277 261 277c153 0 257 -99 261 -260c0 -7 0 -22 -1 -33zM287 492c-107 0 -185 -70 -197 -191h399c-5 123 -89 191 -202 191z
M209 606c-26 0 -46 20 -46 46c0 25 20 46 46 46c24 0 46 -21 46 -46c0 -26 -22 -46 -46 -46zM366 606c-26 0 -46 20 -46 46c0 25 20 46 46 46c24 0 46 -21 46 -46c0 -26 -22 -46 -46 -46z" />
    <glyph glyph-name="iacute" unicode="&#xed;" horiz-adv-x="174" 
d="M116 535v-535h-58v535h58zM137 717h59l-80 -132h-58z" />
    <glyph glyph-name="igrave" unicode="&#xec;" horiz-adv-x="174" 
d="M116 535v-535h-58v535h58zM-19 717h58l77 -132h-57z" />
    <glyph glyph-name="icircumflex" unicode="&#xee;" horiz-adv-x="174" 
d="M58 718h57l93 -139h-56l-65 97l-65 -97h-56zM116 535v-535h-58v535h58z" />
    <glyph glyph-name="idieresis" unicode="&#xef;" horiz-adv-x="174" 
d="M21 606c-26 0 -46 20 -46 46c0 25 20 46 46 46c24 0 46 -21 46 -46c0 -26 -22 -46 -46 -46zM156 606c-26 0 -46 20 -46 46c0 25 20 46 46 46c24 0 46 -21 46 -46c0 -26 -22 -46 -46 -46zM116 535v-535h-58v535h58z" />
    <glyph glyph-name="ntilde" unicode="&#xf1;" horiz-adv-x="468" 
d="M354 0v349c0 88 -37 140 -116 140c-80 0 -122 -58 -122 -145v-344h-58v535h58v-56c17 28 60 62 128 62c120 0 168 -83 168 -187v-354h-58zM294 591c-56 0 -78 51 -122 51c-24 0 -35 -19 -36 -49h-46c0 55 30 100 87 100c54 0 78 -51 121 -51c24 0 35 19 36 50h46
c-1 -59 -33 -101 -86 -101z" />
    <glyph glyph-name="oacute" unicode="&#xf3;" horiz-adv-x="603" 
d="M88 267c0 -132 89 -224 213 -224c123 0 214 92 214 224c0 130 -90 225 -214 225s-213 -94 -213 -225zM28 267c0 166 122 277 274 277c153 0 273 -114 273 -277c0 -162 -123 -276 -275 -276c-153 0 -272 109 -272 276zM337 717h59l-80 -132h-58z" />
    <glyph glyph-name="ograve" unicode="&#xf2;" horiz-adv-x="603" 
d="M88 267c0 -132 89 -224 213 -224c123 0 214 92 214 224c0 130 -90 225 -214 225s-213 -94 -213 -225zM28 267c0 166 122 277 274 277c153 0 273 -114 273 -277c0 -162 -123 -276 -275 -276c-153 0 -272 109 -272 276zM198 717h58l77 -132h-57z" />
    <glyph glyph-name="ocircumflex" unicode="&#xf4;" horiz-adv-x="603" 
d="M88 267c0 -132 89 -224 213 -224c123 0 214 92 214 224c0 130 -90 225 -214 225s-213 -94 -213 -225zM28 267c0 166 122 277 274 277c153 0 273 -114 273 -277c0 -162 -123 -276 -275 -276c-153 0 -272 109 -272 276zM271 718h59l106 -139h-58l-77 96l-78 -96h-58z" />
    <glyph glyph-name="odieresis" unicode="&#xf6;" horiz-adv-x="603" 
d="M88 267c0 -132 89 -224 213 -224c123 0 214 92 214 224c0 130 -90 225 -214 225s-213 -94 -213 -225zM28 267c0 166 122 277 274 277c153 0 273 -114 273 -277c0 -162 -123 -276 -275 -276c-153 0 -272 109 -272 276zM223 606c-26 0 -46 20 -46 46c0 25 20 46 46 46
c24 0 46 -21 46 -46c0 -26 -22 -46 -46 -46zM380 606c-26 0 -46 20 -46 46c0 25 20 46 46 46c24 0 46 -21 46 -46c0 -26 -22 -46 -46 -46z" />
    <glyph glyph-name="otilde" unicode="&#xf5;" horiz-adv-x="603" 
d="M88 267c0 -132 89 -224 213 -224c123 0 214 92 214 224c0 130 -90 225 -214 225s-213 -94 -213 -225zM28 267c0 166 122 277 274 277c153 0 273 -114 273 -277c0 -162 -123 -276 -275 -276c-153 0 -272 109 -272 276zM360 591c-56 0 -78 51 -122 51
c-24 0 -35 -19 -36 -49h-46c0 55 30 100 87 100c54 0 78 -51 121 -51c24 0 35 19 36 50h46c-1 -59 -33 -101 -86 -101z" />
    <glyph glyph-name="uacute" unicode="&#xfa;" horiz-adv-x="464" 
d="M113 535v-348c0 -88 37 -140 114 -140c79 0 121 58 121 145v343h58v-535h-58v58c-18 -32 -58 -64 -127 -64c-119 0 -166 83 -166 187v354h58zM278 717h59l-80 -132h-58z" />
    <glyph glyph-name="ugrave" unicode="&#xf9;" horiz-adv-x="464" 
d="M113 535v-348c0 -88 37 -140 114 -140c79 0 121 58 121 145v343h58v-535h-58v58c-18 -32 -58 -64 -127 -64c-119 0 -166 83 -166 187v354h58zM138 717h58l77 -132h-57z" />
    <glyph glyph-name="ucircumflex" unicode="&#xfb;" horiz-adv-x="464" 
d="M113 535v-348c0 -88 37 -140 114 -140c79 0 121 58 121 145v343h58v-535h-58v58c-18 -32 -58 -64 -127 -64c-119 0 -166 83 -166 187v354h58zM202 718h59l106 -139h-58l-77 96l-78 -96h-58z" />
    <glyph glyph-name="udieresis" unicode="&#xfc;" horiz-adv-x="464" 
d="M113 535v-348c0 -88 37 -140 114 -140c79 0 121 58 121 145v343h58v-535h-58v58c-18 -32 -58 -64 -127 -64c-119 0 -166 83 -166 187v354h58zM152 606c-26 0 -46 20 -46 46c0 25 20 46 46 46c24 0 46 -21 46 -46c0 -26 -22 -46 -46 -46zM309 606c-26 0 -46 20 -46 46
c0 25 20 46 46 46c24 0 46 -21 46 -46c0 -26 -22 -46 -46 -46z" />
    <glyph glyph-name="dagger" unicode="&#x2020;" horiz-adv-x="338" 
d="M312 485h-114v-485h-58v485h-114v50h114v157h58v-157h114v-50z" />
    <glyph glyph-name="degree" unicode="&#xb0;" horiz-adv-x="342" 
d="M26 559c0 79 59 144 144 144c90 0 146 -63 146 -142c0 -81 -57 -144 -145 -144c-90 0 -145 63 -145 142zM78 559c0 -55 34 -97 94 -97c59 0 92 41 92 99c0 56 -34 97 -94 97c-57 0 -92 -42 -92 -99z" />
    <glyph glyph-name="cent" unicode="&#xa2;" horiz-adv-x="527" 
d="M322 604v-64c96 -7 155 -55 182 -94l-41 -33c-33 39 -78 68 -141 74v-440c66 5 110 36 146 76l37 -31c-30 -40 -90 -90 -183 -97v-63h-55v64c-142 13 -238 125 -238 271c0 145 100 258 238 272v65h55zM90 267c0 -118 75 -204 177 -219v439c-106 -14 -177 -104 -177 -220z
" />
    <glyph glyph-name="sterling" unicode="&#xa3;" horiz-adv-x="507" 
d="M161 511v-146h151v-53h-151v-258h311v-54h-447v54h77v258h-77v53h77v147c0 111 65 194 187 194c133 0 188 -97 186 -195h-58c-1 63 -25 141 -128 141c-88 0 -128 -58 -128 -141z" />
    <glyph glyph-name="section" unicode="&#xa7;" horiz-adv-x="560" 
d="M400 -17c0 53 -24 94 -103 123l-128 47c-89 33 -133 78 -133 160c0 75 49 123 121 136c-37 35 -51 80 -51 124c0 88 61 164 180 164c133 0 177 -99 174 -189h-57c0 53 -27 137 -117 137c-85 0 -121 -48 -121 -110c0 -51 27 -96 97 -120l128 -47c91 -31 134 -77 134 -161
c0 -83 -58 -125 -115 -136c37 -33 50 -82 50 -127c0 -91 -69 -166 -186 -166c-134 0 -185 96 -181 194h59c-1 -76 32 -142 122 -142c81 0 127 44 127 113zM373 352l-115 42c-98 36 -163 -12 -163 -79c0 -61 40 -87 92 -106l132 -48c72 -26 146 10 146 83
c0 66 -40 89 -92 108z" />
    <glyph glyph-name="bullet" unicode="&#x2022;" horiz-adv-x="251" 
d="M30 297c0 55 41 96 95 96c55 0 96 -41 96 -96c0 -54 -41 -95 -96 -95c-54 0 -95 41 -95 95z" />
    <glyph glyph-name="paragraph" unicode="&#xb6;" horiz-adv-x="420" 
d="M358 692v-692h-56v692h56zM228 0h-56v425c-80 3 -143 53 -143 135c0 83 61 132 151 132h48v-692z" />
    <glyph glyph-name="germandbls" unicode="&#xdf;" horiz-adv-x="491" 
d="M197 0v51h12c93 0 191 50 191 184s-97 183 -190 183h-13v51h13c65 0 116 42 116 110c0 67 -39 108 -106 108c-80 0 -104 -60 -104 -127v-560h-58v561c0 90 41 176 163 176c118 0 165 -77 165 -156c0 -63 -31 -105 -74 -128c83 -28 149 -98 149 -216
c0 -159 -112 -237 -252 -237h-12z" />
    <glyph glyph-name="registered" unicode="&#xae;" horiz-adv-x="457" 
d="M233 523h-27v-93h-41v220h67c48 0 74 -23 74 -63c0 -28 -15 -46 -33 -54l42 -103h-43zM236 613h-30v-53h30c17 0 26 10 26 27s-10 26 -26 26zM24 536c0 112 80 202 202 202c128 0 207 -89 207 -201c0 -109 -78 -202 -204 -202c-125 0 -205 88 -205 201zM66 536
c0 -92 60 -163 162 -163c104 0 163 69 163 164c0 96 -60 163 -165 163c-100 0 -160 -69 -160 -164z" />
    <glyph glyph-name="copyright" unicode="&#xa9;" horiz-adv-x="784" 
d="M30 346c0 201 146 360 358 360c224 0 366 -155 366 -357c0 -203 -139 -362 -361 -362c-221 0 -363 156 -363 359zM85 346c0 -176 119 -312 308 -312s306 133 306 314c0 180 -118 311 -311 311c-181 0 -303 -133 -303 -313zM537 496l-31 -40c-19 17 -52 38 -102 38
c-86 0 -137 -66 -137 -148c0 -81 53 -146 140 -146c40 0 78 16 102 38l29 -34c-32 -35 -79 -52 -131 -52c-122 0 -197 85 -197 194c0 111 79 196 195 196c58 0 102 -18 132 -46z" />
    <glyph glyph-name="trademark" unicode="&#x2122;" horiz-adv-x="590" 
d="M197 692v-43h-61v-239h-48v239h-60v43h169zM516 410v210l-94 -210h-48l-93 209v-209h-44v282h63l100 -226l99 226h63v-282h-46z" />
    <glyph glyph-name="acute" unicode="&#xb4;" horiz-adv-x="476" 
d="M295 717h59l-80 -132h-58z" />
    <glyph glyph-name="dieresis" unicode="&#xa8;" horiz-adv-x="476" 
d="M165 606c-26 0 -46 20 -46 46c0 25 20 46 46 46c24 0 46 -21 46 -46c0 -26 -22 -46 -46 -46zM322 606c-26 0 -46 20 -46 46c0 25 20 46 46 46c24 0 46 -21 46 -46c0 -26 -22 -46 -46 -46z" />
    <glyph glyph-name="AE" unicode="&#xc6;" horiz-adv-x="763" 
d="M724 0h-288v230h-236l-134 -230h-64l405 692h315v-54h-227v-253h221v-54h-221v-277h229v-54zM231 283h205v353z" />
    <glyph glyph-name="Oslash" unicode="&#xd8;" horiz-adv-x="759" 
d="M30 346c0 212 150 360 349 360c82 0 154 -25 212 -69l56 66l42 -35l-57 -67c60 -64 97 -153 97 -255c0 -207 -150 -359 -351 -359c-82 0 -156 25 -214 69l-56 -66l-41 34l57 67c-59 63 -94 151 -94 255zM668 346c0 85 -27 158 -74 211l-393 -458c48 -37 109 -58 178 -58
c168 0 289 124 289 305zM91 346c0 -85 26 -157 71 -210l393 459c-48 36 -108 57 -176 57c-168 0 -288 -126 -288 -306z" />
    <glyph glyph-name="yen" unicode="&#xa5;" horiz-adv-x="460" 
d="M35 413h154l-184 279h69l158 -240l158 240h64l-183 -279h153v-49h-165v-107h165v-49h-165v-208h-59v208h-165v49h165v107h-165v49z" />
    <glyph glyph-name="ordfeminine" unicode="&#xaa;" horiz-adv-x="346" 
d="M30 413c0 76 54 131 135 131c45 0 71 -16 87 -30v44c0 61 -27 95 -82 95c-56 0 -74 -34 -76 -72h-50c0 64 42 117 127 117c90 0 132 -55 132 -142v-267h-51v27c-18 -19 -46 -34 -87 -34c-77 0 -135 49 -135 131zM82 413c0 -50 34 -86 85 -86c49 0 86 34 86 86
c0 50 -37 86 -87 86c-51 0 -84 -36 -84 -86z" />
    <glyph glyph-name="ordmasculine" unicode="&#xba;" horiz-adv-x="449" 
d="M73 491c0 -93 64 -158 151 -158c88 0 152 64 152 158c0 92 -65 159 -152 159c-89 0 -151 -65 -151 -159zM20 491c0 124 91 207 205 207s204 -85 204 -207c0 -121 -93 -206 -205 -206c-115 0 -204 82 -204 206z" />
    <glyph glyph-name="ae" unicode="&#xe6;" horiz-adv-x="866" 
d="M593 -6c-97 0 -174 40 -220 109c-17 -50 -62 -112 -162 -112c-102 0 -180 67 -180 173c0 100 72 174 178 174c55 0 100 -21 123 -46v64c0 89 -38 137 -115 137c-79 0 -107 -53 -108 -107h-55c0 82 54 155 165 155c85 0 138 -42 156 -109c46 69 120 109 210 109
c151 0 254 -98 258 -257c0 -7 0 -22 -1 -33h-454c1 -119 85 -205 205 -205c100 0 157 50 195 132l45 -20c-36 -93 -117 -164 -240 -164zM583 489c-113 0 -188 -84 -194 -188h393c-5 121 -88 188 -199 188zM88 164c0 -71 49 -125 124 -125c73 0 126 53 126 125
c0 73 -52 126 -127 126c-76 0 -123 -54 -123 -126z" />
    <glyph glyph-name="oslash" unicode="&#xf8;" horiz-adv-x="603" 
d="M28 267c0 166 122 277 274 277c61 0 117 -18 161 -50l43 50l40 -33l-44 -51c46 -49 73 -115 73 -193c0 -162 -123 -276 -275 -276c-60 0 -114 16 -159 47l-41 -48l-38 32l41 48c-47 48 -75 115 -75 197zM88 267c0 -62 19 -114 52 -153l287 337c-35 26 -78 41 -126 41
c-124 0 -213 -94 -213 -225zM515 267c0 59 -19 110 -50 149l-288 -336c34 -24 76 -37 124 -37c123 0 214 92 214 224z" />
    <glyph glyph-name="questiondown" unicode="&#xbf;" horiz-adv-x="452" 
d="M212 269v167h59v-215h-34c-85 0 -149 -44 -149 -137c0 -86 55 -144 140 -144c117 0 141 101 140 157h57c3 -68 -31 -209 -197 -209c-130 0 -202 87 -202 195c0 101 71 182 186 186zM242 598c27 0 49 -21 49 -49s-22 -49 -49 -49s-49 21 -49 49s22 49 49 49z" />
    <glyph glyph-name="exclamdown" unicode="&#xa1;" horiz-adv-x="190" 
d="M125 436v-537h-59v537h59zM95 598c27 0 49 -21 49 -49s-22 -49 -49 -49s-49 21 -49 49s22 49 49 49z" />
    <glyph glyph-name="florin" unicode="&#x192;" horiz-adv-x="322" 
d="M191 553l-27 -149h97v-51h-106l-92 -528h-57l92 528h-55v51h64l27 149c18 101 60 139 147 139h31v-51h-35c-60 0 -77 -36 -86 -88z" />
    <glyph glyph-name="guillemotleft" unicode="&#xab;" horiz-adv-x="306" 
d="M159 112h-55l-86 156l86 158h56l-86 -158zM287 112h-55l-86 156l86 158h56l-86 -158z" />
    <glyph glyph-name="guillemotright" unicode="&#xbb;" horiz-adv-x="306" 
d="M19 426h55l86 -156l-86 -158h-56l86 158zM147 426h55l86 -156l-86 -158h-56l86 158z" />
    <glyph glyph-name="ellipsis" unicode="&#x2026;" horiz-adv-x="494" 
d="M247 -7c-27 0 -49 21 -49 49s22 49 49 49s49 -21 49 -49s-22 -49 -49 -49zM79 -7c-27 0 -49 21 -49 49s22 49 49 49s49 -21 49 -49s-22 -49 -49 -49zM415 -7c-27 0 -49 21 -49 49s22 49 49 49s49 -21 49 -49s-22 -49 -49 -49z" />
    <glyph glyph-name="uni00A0" unicode="&#xa0;" horiz-adv-x="156" 
 />
    <glyph glyph-name="Agrave" unicode="&#xc0;" horiz-adv-x="616" 
d="M553 0l-107 263h-283l-103 -263h-58l270 692h61l281 -692h-61zM302 617l-118 -301h240zM192 856h59l76 -123h-58z" />
    <glyph glyph-name="Atilde" unicode="&#xc3;" horiz-adv-x="616" 
d="M553 0l-107 263h-283l-103 -263h-58l270 692h61l281 -692h-61zM302 617l-118 -301h240zM363 743c-56 0 -81 51 -125 51c-24 0 -37 -19 -38 -49h-46c0 55 32 100 89 100c54 0 80 -51 123 -51c24 0 37 19 38 50h46c-1 -59 -35 -101 -87 -101z" />
    <glyph glyph-name="Otilde" unicode="&#xd5;" horiz-adv-x="759" 
d="M30 346c0 212 150 360 349 360c201 0 350 -151 350 -360c0 -207 -150 -359 -351 -359c-200 0 -348 147 -348 359zM91 346c0 -181 120 -305 288 -305s289 124 289 305c0 180 -121 306 -289 306s-288 -126 -288 -306zM439 744c-56 0 -81 51 -125 51c-24 0 -37 -19 -38 -49
h-46c0 55 32 100 89 100c54 0 80 -51 123 -51c24 0 37 19 38 50h46c-1 -59 -35 -101 -87 -101z" />
    <glyph glyph-name="OE" unicode="&#x152;" horiz-adv-x="704" 
d="M377 54v584c-184 0 -284 -120 -284 -292c0 -174 100 -292 284 -292zM377 692h286v-54h-227v-253h221v-54h-221v-277h229v-54h-287c-217 0 -348 146 -348 346c0 201 130 346 347 346z" />
    <glyph glyph-name="oe" unicode="&#x153;" horiz-adv-x="1055" 
d="M88 267c0 -132 89 -224 213 -224c123 0 214 92 214 224c0 133 -93 225 -214 225c-124 0 -213 -94 -213 -225zM770 489c-113 0 -188 -84 -194 -188h393c-5 120 -88 188 -199 188zM780 -6c-110 0 -195 53 -237 142c-47 -90 -138 -145 -243 -145c-153 0 -272 109 -272 276
c0 166 122 277 274 277c106 0 197 -55 242 -145c42 87 125 142 228 142c151 0 254 -98 258 -257c0 -7 0 -22 -1 -33h-454c1 -119 85 -205 205 -205c100 0 157 50 195 132l45 -20c-36 -93 -117 -164 -240 -164z" />
    <glyph glyph-name="endash" unicode="&#x2013;" horiz-adv-x="599" 
d="M559 259h-519v50h519v-50z" />
    <glyph glyph-name="emdash" unicode="&#x2014;" horiz-adv-x="924" 
d="M884 259h-844v50h844v-50z" />
    <glyph glyph-name="quotedblleft" unicode="&#x201c;" horiz-adv-x="288" 
d="M125 692l-39 -100c27 -6 40 -25 40 -46c0 -29 -20 -49 -48 -49c-27 0 -48 21 -48 49c0 19 7 34 16 57l35 89h44zM257 692l-39 -100c27 -6 40 -25 40 -46c0 -29 -20 -49 -48 -49c-27 0 -48 21 -48 49c0 19 7 34 16 57l35 89h44z" />
    <glyph glyph-name="quotedblright" unicode="&#x201d;" horiz-adv-x="288" 
d="M31 504l39 100c-27 6 -40 25 -40 46c0 29 20 49 48 49c27 0 48 -21 48 -49c0 -19 -7 -34 -16 -57l-35 -89h-44zM163 504l39 100c-27 6 -40 25 -40 46c0 29 20 49 48 49c27 0 48 -21 48 -49c0 -19 -7 -34 -16 -57l-35 -89h-44z" />
    <glyph glyph-name="quoteleft" unicode="&#x2018;" horiz-adv-x="156" 
d="M125 692l-39 -100c27 -6 40 -25 40 -46c0 -29 -20 -49 -48 -49c-27 0 -48 21 -48 49c0 19 7 34 16 57l35 89h44z" />
    <glyph glyph-name="quoteright" unicode="&#x2019;" horiz-adv-x="156" 
d="M31 504l39 100c-27 6 -40 25 -40 46c0 29 20 49 48 49c27 0 48 -21 48 -49c0 -19 -7 -34 -16 -57l-35 -89h-44z" />
    <glyph glyph-name="divide" unicode="&#xf7;" horiz-adv-x="455" 
d="M227 124c-28 0 -49 21 -49 49s21 49 49 49s49 -21 49 -49s-21 -49 -49 -49zM227 446c-28 0 -49 21 -49 49s21 49 49 49s49 -21 49 -49s-21 -49 -49 -49zM20 312v49h415v-49h-415z" />
    <glyph glyph-name="ydieresis" unicode="&#xff;" horiz-adv-x="498" 
d="M214 -175h-59l70 175l-227 535h65l193 -461l181 461h63zM176 606c-26 0 -46 20 -46 46c0 25 20 46 46 46c24 0 46 -21 46 -46c0 -26 -22 -46 -46 -46zM333 606c-26 0 -46 20 -46 46c0 25 20 46 46 46c24 0 46 -21 46 -46c0 -26 -22 -46 -46 -46z" />
    <glyph glyph-name="Ydieresis" unicode="&#x178;" horiz-adv-x="453" 
d="M197 363l-197 329h68l160 -270l160 270h65l-197 -329v-363h-59v363zM140 749c-26 0 -46 20 -46 46c0 25 20 46 46 46c24 0 46 -21 46 -46c0 -26 -22 -46 -46 -46zM317 749c-26 0 -46 20 -46 46c0 25 20 46 46 46c24 0 46 -21 46 -46c0 -26 -22 -46 -46 -46z" />
    <glyph glyph-name="fraction" unicode="&#x2044;" horiz-adv-x="653" 
d="M613 692l-518 -692h-57l517 692h58z" />
    <glyph glyph-name="Euro" unicode="&#x20ac;" horiz-adv-x="650" 
d="M15 453h64c41 151 168 250 333 250c81 0 158 -24 213 -77l-36 -41c-49 42 -110 64 -178 64c-95 0 -172 -39 -222 -105c-20 -27 -35 -57 -45 -91h282v-51h-293c-3 -18 -4 -37 -4 -56c0 -18 1 -35 3 -51h294v-51h-283c13 -44 35 -81 63 -112c51 -56 124 -88 209 -88
c90 0 148 39 188 75l34 -39c-39 -39 -112 -90 -223 -90c-167 0 -296 101 -336 254h-63v51h54c-2 16 -3 33 -3 51c0 19 1 38 4 56h-55v51z" />
    <glyph glyph-name="guilsinglleft" unicode="&#x2039;" horiz-adv-x="178" 
d="M159 112h-55l-86 156l86 158h56l-86 -158z" />
    <glyph glyph-name="guilsinglright" unicode="&#x203a;" horiz-adv-x="178" 
d="M19 426h55l86 -156l-86 -158h-56l86 158z" />
    <glyph glyph-name="daggerdbl" unicode="&#x2021;" horiz-adv-x="342" 
d="M28 215h114v270h-114v50h114v157h58v-157h114v-50h-114v-270h114v-50h-114v-165h-58v165h-114v50z" />
    <glyph glyph-name="periodcentered" unicode="&#xb7;" horiz-adv-x="158" 
d="M79 280c-27 0 -49 21 -49 49s22 49 49 49s49 -21 49 -49s-22 -49 -49 -49z" />
    <glyph glyph-name="quotesinglbase" unicode="&#x201a;" horiz-adv-x="156" 
d="M31 -97l39 100c-27 6 -40 25 -40 46c0 29 20 49 48 49c27 0 48 -21 48 -49c0 -19 -7 -34 -16 -57l-35 -89h-44z" />
    <glyph glyph-name="quotedblbase" unicode="&#x201e;" horiz-adv-x="290" 
d="M165 -97l39 100c-27 6 -40 25 -40 46c0 29 20 49 48 49c27 0 48 -21 48 -49c0 -19 -7 -34 -16 -57l-35 -89h-44zM31 -97l39 100c-27 6 -40 25 -40 46c0 29 20 49 48 49c27 0 48 -21 48 -49c0 -19 -7 -34 -16 -57l-35 -89h-44z" />
    <glyph glyph-name="perthousand" unicode="&#x2030;" horiz-adv-x="1145" 
d="M837 156c0 -65 44 -115 112 -115c70 0 111 50 111 115c0 66 -43 116 -114 116c-66 0 -109 -50 -109 -116zM783 156c0 90 67 163 163 163c101 0 168 -72 168 -163c0 -89 -68 -162 -166 -162c-97 0 -165 71 -165 162zM459 156c0 -65 44 -115 112 -115c70 0 111 50 111 115
c0 66 -43 116 -114 116c-66 0 -109 -50 -109 -116zM405 156c0 90 67 163 163 163c101 0 168 -72 168 -163c0 -89 -68 -162 -166 -162c-97 0 -165 71 -165 162zM683 691l-536 -691h-58l536 691h58zM85 536c0 -65 44 -115 112 -115c70 0 111 50 111 115c0 66 -43 116 -114 116
c-66 0 -109 -50 -109 -116zM31 536c0 90 67 163 163 163c101 0 168 -72 168 -163c0 -89 -68 -162 -166 -162c-97 0 -165 71 -165 162z" />
    <glyph glyph-name="Acircumflex" unicode="&#xc2;" horiz-adv-x="616" 
d="M553 0l-107 263h-283l-103 -263h-58l270 692h61l281 -692h-61zM302 617l-118 -301h240zM272 856h58l113 -123h-62l-79 82l-79 -82h-64z" />
    <glyph glyph-name="Ecircumflex" unicode="&#xca;" horiz-adv-x="389" 
d="M350 0h-288v692h286v-54h-227v-253h221v-54h-221v-277h229v-54zM174 856h58l113 -123h-62l-79 82l-79 -82h-64z" />
    <glyph glyph-name="Aacute" unicode="&#xc1;" horiz-adv-x="616" 
d="M553 0l-107 263h-283l-103 -263h-58l270 692h61l281 -692h-61zM302 617l-118 -301h240zM355 856h60l-77 -123h-59z" />
    <glyph glyph-name="Edieresis" unicode="&#xcb;" horiz-adv-x="389" 
d="M350 0h-288v692h286v-54h-227v-253h221v-54h-221v-277h229v-54zM121 749c-26 0 -46 20 -46 46c0 25 20 46 46 46c24 0 46 -21 46 -46c0 -26 -22 -46 -46 -46zM298 749c-26 0 -46 20 -46 46c0 25 20 46 46 46c24 0 46 -21 46 -46c0 -26 -22 -46 -46 -46z" />
    <glyph glyph-name="Egrave" unicode="&#xc8;" horiz-adv-x="389" 
d="M350 0h-288v692h286v-54h-227v-253h221v-54h-221v-277h229v-54zM113 856h59l76 -123h-58z" />
    <glyph glyph-name="Iacute" unicode="&#xcd;" horiz-adv-x="183" 
d="M121 692v-692h-59v692h59zM140 856h60l-77 -123h-59z" />
    <glyph glyph-name="Icircumflex" unicode="&#xce;" horiz-adv-x="183" 
d="M62 856h58l100 -123h-58l-70 84l-70 -84h-60zM121 692v-692h-59v692h59z" />
    <glyph glyph-name="Idieresis" unicode="&#xcf;" horiz-adv-x="183" 
d="M19 749c-26 0 -46 20 -46 46c0 25 20 46 46 46c24 0 46 -21 46 -46c0 -26 -22 -46 -46 -46zM164 749c-26 0 -46 20 -46 46c0 25 20 46 46 46c24 0 46 -21 46 -46c0 -26 -22 -46 -46 -46zM121 692v-692h-59v692h59z" />
    <glyph glyph-name="Igrave" unicode="&#xcc;" horiz-adv-x="183" 
d="M121 692v-692h-59v692h59zM-13 856h59l76 -123h-58z" />
    <glyph glyph-name="Oacute" unicode="&#xd3;" horiz-adv-x="759" 
d="M30 346c0 212 150 360 349 360c201 0 350 -151 350 -360c0 -207 -150 -359 -351 -359c-200 0 -348 147 -348 359zM91 346c0 -181 120 -305 288 -305s289 124 289 305c0 180 -121 306 -289 306s-288 -126 -288 -306zM428 856h60l-77 -123h-59z" />
    <glyph glyph-name="Ocircumflex" unicode="&#xd4;" horiz-adv-x="759" 
d="M30 346c0 212 150 360 349 360c201 0 350 -151 350 -360c0 -207 -150 -359 -351 -359c-200 0 -348 147 -348 359zM91 346c0 -181 120 -305 288 -305s289 124 289 305c0 180 -121 306 -289 306s-288 -126 -288 -306zM350 856h58l113 -123h-62l-79 82l-79 -82h-64z" />
    <glyph glyph-name="Ograve" unicode="&#xd2;" horiz-adv-x="759" 
d="M30 346c0 212 150 360 349 360c201 0 350 -151 350 -360c0 -207 -150 -359 -351 -359c-200 0 -348 147 -348 359zM91 346c0 -181 120 -305 288 -305s289 124 289 305c0 180 -121 306 -289 306s-288 -126 -288 -306zM271 856h59l76 -123h-58z" />
    <glyph glyph-name="Uacute" unicode="&#xda;" horiz-adv-x="613" 
d="M307 -13c-169 0 -250 105 -250 265v440h59v-439c0 -128 58 -212 191 -212c124 0 191 88 191 212v439h58v-440c0 -154 -94 -265 -249 -265zM340 856h60l-77 -123h-59z" />
    <glyph glyph-name="Ucircumflex" unicode="&#xdb;" horiz-adv-x="613" 
d="M307 -13c-169 0 -250 105 -250 265v440h59v-439c0 -128 58 -212 191 -212c124 0 191 88 191 212v439h58v-440c0 -154 -94 -265 -249 -265zM278 856h58l113 -123h-62l-79 82l-79 -82h-64z" />
    <glyph glyph-name="Ugrave" unicode="&#xd9;" horiz-adv-x="613" 
d="M307 -13c-169 0 -250 105 -250 265v440h59v-439c0 -128 58 -212 191 -212c124 0 191 88 191 212v439h58v-440c0 -154 -94 -265 -249 -265zM217 856h59l76 -123h-58z" />
    <glyph glyph-name="dotlessi" unicode="&#x131;" horiz-adv-x="174" 
d="M116 535v-535h-58v535h58z" />
    <glyph glyph-name="circumflex" unicode="&#x2c6;" horiz-adv-x="400" 
d="M170 718h59l106 -139h-58l-77 96l-78 -96h-58z" />
    <glyph glyph-name="tilde" unicode="&#x2dc;" horiz-adv-x="400" 
d="M257 591c-56 0 -78 51 -122 51c-24 0 -35 -19 -36 -49h-46c0 55 30 100 87 100c54 0 78 -51 121 -51c24 0 35 19 36 50h46c-1 -59 -33 -101 -86 -101z" />
    <glyph glyph-name="macron" unicode="&#xaf;" horiz-adv-x="400" 
d="M90 609v48h220v-48h-220z" />
    <glyph glyph-name="breve" unicode="&#x2d8;" horiz-adv-x="400" 
d="M202 577c-102 0 -128 81 -129 123h49c2 -27 17 -75 80 -75s78 48 80 75h47c0 -43 -28 -123 -127 -123z" />
    <glyph glyph-name="dotaccent" unicode="&#x2d9;" horiz-adv-x="400" 
d="M202 605c-26 0 -47 20 -47 47s21 47 47 47s47 -20 47 -47s-21 -47 -47 -47z" />
    <glyph glyph-name="ring" unicode="&#x2da;" horiz-adv-x="400" 
d="M102 659c0 56 40 96 96 96c62 0 99 -40 99 -94c0 -56 -39 -96 -98 -96c-58 0 -97 40 -97 94zM146 659c0 -30 20 -53 53 -53c36 0 54 23 54 55c0 30 -18 53 -55 53c-32 0 -52 -23 -52 -55z" />
    <glyph glyph-name="cedilla" unicode="&#xb8;" horiz-adv-x="400" 
d="M151 -245h-20v46h20c37 0 67 14 67 57c0 39 -25 56 -67 56h-20v105h45v-61c64 -8 92 -46 92 -100c0 -69 -53 -103 -117 -103z" />
    <glyph glyph-name="hungarumlaut" unicode="&#x2dd;" horiz-adv-x="400" 
d="M150 717h57l-65 -132h-58zM281 717h57l-65 -132h-58z" />
    <glyph glyph-name="ogonek" unicode="&#x2db;" horiz-adv-x="400" 
d="M170 0h70c-49 -22 -66 -49 -66 -78c0 -35 28 -50 66 -51v-46c-78 -1 -120 38 -120 92c0 29 13 58 50 83z" />
    <glyph glyph-name="caron" unicode="&#x2c7;" horiz-adv-x="400" 
d="M229 584h-59l-106 139h58l78 -98l77 98h58z" />
    <glyph glyph-name="space_uni0326" horiz-adv-x="400" 
d="M165 -234l44 98c-25 5 -39 22 -39 46c0 29 21 47 48 47c28 0 48 -21 48 -48c0 -21 -9 -38 -18 -57l-40 -86h-43z" />
    <glyph glyph-name="caron.alt" horiz-adv-x="476" 
d="M282 731h53l-18 -149h-51z" />
    <glyph glyph-name="space_uni0326.alt" horiz-adv-x="400" 
d="M257 772l-44 -98c25 -5 39 -21 39 -45c0 -30 -21 -48 -48 -48c-28 0 -48 21 -48 48c0 21 9 38 18 57l40 86h43z" />
    <glyph glyph-name="acute.pl" horiz-adv-x="476" 
d="M258 717h51l-42 -132h-52z" />
    <glyph glyph-name="grave.uc" horiz-adv-x="476" 
d="M136 856h59l76 -123h-58z" />
    <glyph glyph-name="dieresis.uc" horiz-adv-x="476" 
d="M147 749c-26 0 -46 20 -46 46c0 25 20 46 46 46c24 0 46 -21 46 -46c0 -26 -22 -46 -46 -46zM324 749c-26 0 -46 20 -46 46c0 25 20 46 46 46c24 0 46 -21 46 -46c0 -26 -22 -46 -46 -46z" />
    <glyph glyph-name="macron.uc" horiz-adv-x="476" 
d="M133 758v48h226v-48h-226z" />
    <glyph glyph-name="acute.uc" horiz-adv-x="476" 
d="M291 856h60l-77 -123h-59z" />
    <glyph glyph-name="circumflex.uc" horiz-adv-x="400" 
d="M169 856h58l113 -123h-62l-79 82l-79 -82h-64z" />
    <glyph glyph-name="caron.uc" horiz-adv-x="400" 
d="M228 733h-58l-113 123h64l79 -84l79 84h62z" />
    <glyph glyph-name="breve.uc" horiz-adv-x="400" 
d="M202 737c-101 0 -128 79 -129 119h50c2 -24 17 -70 79 -70s77 46 79 70h48c-1 -41 -30 -119 -127 -119z" />
    <glyph glyph-name="dotaccent.uc" horiz-adv-x="400" 
d="M202 752c-26 0 -47 20 -47 47s21 47 47 47s47 -20 47 -47s-21 -47 -47 -47z" />
    <glyph glyph-name="ring.uc" horiz-adv-x="473" 
d="M139 816c0 56 40 96 96 96c62 0 99 -40 99 -94c0 -56 -39 -96 -98 -96c-58 0 -97 40 -97 94zM184 816c0 -30 20 -52 52 -52c35 0 53 22 53 54c0 30 -18 52 -54 52c-31 0 -51 -22 -51 -54z" />
    <glyph glyph-name="tilde.uc" horiz-adv-x="476" 
d="M302 744c-56 0 -81 51 -125 51c-24 0 -37 -19 -38 -49h-46c0 55 32 100 89 100c54 0 80 -51 123 -51c24 0 37 19 38 50h46c-1 -59 -35 -101 -87 -101z" />
    <glyph glyph-name="hungarumlaut.uc" horiz-adv-x="400" 
d="M134 856h57l-63 -123h-58zM265 856h57l-63 -123h-58z" />
    <glyph glyph-name="acute.ucpl" horiz-adv-x="476" 
d="M267 856h52l-41 -123h-53z" />
    <glyph glyph-name="Dcroat" unicode="&#x110;" horiz-adv-x="539" 
d="M71 692h91c219 0 346 -139 346 -346c0 -205 -128 -346 -347 -346h-90v328h-61v52h61v312zM130 638v-258h140v-52h-140v-274h32c186 0 284 113 284 292c0 178 -98 292 -284 292h-32z" />
    <glyph glyph-name="Eng" unicode="&#x14a;" horiz-adv-x="649" 
d="M528 -5l-407 596v-591h-59v692h62l404 -595v595h59v-748c0 -74 -25 -120 -119 -120c-23 0 -39 1 -39 1v52h39c49 0 60 28 60 68v50z" />
    <glyph glyph-name="IJ" unicode="&#x132;" horiz-adv-x="421" 
d="M121 692v-692h-59v692h59zM360 692v-573c0 -74 -25 -120 -119 -120c-23 0 -39 1 -39 1v52h39c49 0 60 28 60 68v572h59z" />
    <glyph glyph-name="uni0237" unicode="&#x237;" horiz-adv-x="174" 
d="M116 535v-557c0 -93 -34 -153 -138 -153h-22v51h21c69 0 81 43 81 100v559h58z" />
    <glyph glyph-name="dcroat" unicode="&#x111;" horiz-adv-x="629" 
d="M382 603v48h127v80h58v-80h56v-48h-56v-603h-58v104c-24 -47 -96 -113 -209 -113c-158 0 -272 111 -272 276c0 160 117 277 272 277c93 0 173 -47 209 -106v165h-127zM88 267c0 -132 89 -224 212 -224s212 92 212 224c0 131 -89 225 -212 225s-212 -94 -212 -225z" />
    <glyph glyph-name="eng" unicode="&#x14b;" horiz-adv-x="468" 
d="M412 354v-376c0 -93 -34 -153 -138 -153h-22v51h21c69 0 81 43 81 100v374c0 88 -37 140 -116 140c-80 0 -122 -58 -122 -145v-345h-58v535h58v-56c17 28 60 62 128 62c120 0 168 -83 168 -187z" />
    <glyph glyph-name="ij" unicode="&#x133;" horiz-adv-x="348" 
d="M116 535v-535h-58v535h58zM87 605c-26 0 -47 20 -47 47s21 47 47 47s47 -20 47 -47s-21 -47 -47 -47zM290 535v-557c0 -93 -34 -153 -138 -153h-22v51h21c69 0 81 43 81 100v559h58zM261 605c-26 0 -47 20 -47 47s21 47 47 47s47 -20 47 -47s-21 -47 -47 -47z" />
    <glyph glyph-name="Abreve" unicode="&#x102;" horiz-adv-x="616" 
d="M553 0l-107 263h-283l-103 -263h-58l270 692h61l281 -692h-61zM302 617l-118 -301h240zM303 737c-101 0 -128 79 -129 119h50c2 -24 17 -70 79 -70s77 46 79 70h48c-1 -41 -30 -119 -127 -119z" />
    <glyph glyph-name="Amacron" unicode="&#x100;" horiz-adv-x="616" 
d="M553 0l-107 263h-283l-103 -263h-58l270 692h61l281 -692h-61zM302 617l-118 -301h240zM189 758v48h226v-48h-226z" />
    <glyph glyph-name="Aogonek" unicode="&#x104;" horiz-adv-x="616" 
d="M496 -82c0 32 16 66 55 86l-105 259h-283l-103 -263h-58l270 692h61l283 -697c-49 -19 -66 -43 -66 -73c0 -35 32 -49 66 -51v-46c-76 0 -120 39 -120 93zM302 617l-118 -301h240z" />
    <glyph glyph-name="Aringacute" unicode="&#x1fa;" horiz-adv-x="616" 
d="M553 0l-107 263h-283l-103 -263h-58l270 692h61l281 -692h-61zM302 617l-118 -301h240zM205 816c0 56 40 96 96 96c62 0 99 -40 99 -94c0 -56 -39 -96 -98 -96c-58 0 -97 40 -97 94zM250 816c0 -30 20 -52 52 -52c35 0 53 22 53 54c0 30 -18 52 -54 52
c-31 0 -51 -22 -51 -54zM346 1061h60l-77 -123h-59z" />
    <glyph glyph-name="AEacute" unicode="&#x1fc;" horiz-adv-x="763" 
d="M724 0h-288v230h-236l-134 -230h-64l405 692h315v-54h-227v-253h221v-54h-221v-277h229v-54zM231 283h205v353zM589 856h60l-77 -123h-59z" />
    <glyph glyph-name="Cacute" unicode="&#x106;" horiz-adv-x="620" 
d="M404 856h60l-77 -123h-59zM574 118l33 -39c-38 -39 -117 -92 -227 -92c-204 0 -350 148 -350 359s145 360 348 360c83 0 162 -26 218 -79l-35 -41c-49 42 -114 66 -184 66c-172 0 -286 -126 -286 -306s121 -305 290 -305c91 0 153 41 193 77z" />
    <glyph glyph-name="Ccaron" unicode="&#x10c;" horiz-adv-x="620" 
d="M402 733h-58l-113 123h64l79 -84l79 84h62zM574 118l33 -39c-38 -39 -117 -92 -227 -92c-204 0 -350 148 -350 359s145 360 348 360c83 0 162 -26 218 -79l-35 -41c-49 42 -114 66 -184 66c-172 0 -286 -126 -286 -306s121 -305 290 -305c91 0 153 41 193 77z" />
    <glyph glyph-name="Ccircumflex" unicode="&#x108;" horiz-adv-x="620" 
d="M335 856h58l113 -123h-62l-79 82l-79 -82h-64zM574 118l33 -39c-38 -39 -117 -92 -227 -92c-204 0 -350 148 -350 359s145 360 348 360c83 0 162 -26 218 -79l-35 -41c-49 42 -114 66 -184 66c-172 0 -286 -126 -286 -306s121 -305 290 -305c91 0 153 41 193 77z" />
    <glyph glyph-name="Cdotaccent" unicode="&#x10a;" horiz-adv-x="620" 
d="M364 752c-26 0 -47 20 -47 47s21 47 47 47s47 -20 47 -47s-21 -47 -47 -47zM574 118l33 -39c-38 -39 -117 -92 -227 -92c-204 0 -350 148 -350 359s145 360 348 360c83 0 162 -26 218 -79l-35 -41c-49 42 -114 66 -184 66c-172 0 -286 -126 -286 -306s121 -305 290 -305
c91 0 153 41 193 77z" />
    <glyph glyph-name="Cacute.pl" horiz-adv-x="620" 
d="M385 856h52l-41 -123h-53zM574 118l33 -39c-38 -39 -117 -92 -227 -92c-204 0 -350 148 -350 359s145 360 348 360c83 0 162 -26 218 -79l-35 -41c-49 42 -114 66 -184 66c-172 0 -286 -126 -286 -306s121 -305 290 -305c91 0 153 41 193 77z" />
    <glyph glyph-name="Dcaron" unicode="&#x10e;" horiz-adv-x="529" 
d="M121 638v-584h32c186 0 284 113 284 292c0 178 -98 292 -284 292h-32zM62 692h91c219 0 346 -139 346 -346c0 -205 -128 -346 -347 -346h-90v692zM275 733h-58l-113 123h64l79 -84l79 84h62z" />
    <glyph glyph-name="Ebreve" unicode="&#x114;" horiz-adv-x="389" 
d="M350 0h-288v692h286v-54h-227v-253h221v-54h-221v-277h229v-54zM209 737c-101 0 -128 79 -129 119h50c2 -24 17 -70 79 -70s77 46 79 70h48c-1 -41 -30 -119 -127 -119z" />
    <glyph glyph-name="Ecaron" unicode="&#x11a;" horiz-adv-x="389" 
d="M350 0h-288v692h286v-54h-227v-253h221v-54h-221v-277h229v-54zM236 733h-58l-113 123h64l79 -84l79 84h62z" />
    <glyph glyph-name="Edotaccent" unicode="&#x116;" horiz-adv-x="389" 
d="M350 0h-288v692h286v-54h-227v-253h221v-54h-221v-277h229v-54zM204 752c-26 0 -47 20 -47 47s21 47 47 47s47 -20 47 -47s-21 -47 -47 -47z" />
    <glyph glyph-name="Emacron" unicode="&#x112;" horiz-adv-x="389" 
d="M350 0h-288v692h286v-54h-227v-253h221v-54h-221v-277h229v-54zM96 758v48h226v-48h-226z" />
    <glyph glyph-name="Eogonek" unicode="&#x118;" horiz-adv-x="389" 
d="M350 0h-43c-48 -19 -66 -46 -66 -75c0 -39 32 -52 66 -54v-46c-76 0 -120 39 -120 93c0 31 12 59 45 82h-170v692h286v-54h-227v-253h221v-54h-221v-277h229v-54z" />
    <glyph glyph-name="Gbreve" unicode="&#x11e;" horiz-adv-x="705" 
d="M650 342v-342h-58v60c-43 -37 -119 -73 -213 -73c-201 0 -349 147 -349 359s149 360 350 360c132 0 216 -61 255 -111l-40 -37c-41 46 -108 94 -215 94c-169 0 -288 -126 -288 -306c0 -181 119 -305 288 -305c88 0 160 31 212 83v164h-140v54h198zM363 737
c-101 0 -128 79 -129 119h50c2 -24 17 -70 79 -70s77 46 79 70h48c-1 -41 -30 -119 -127 -119z" />
    <glyph glyph-name="Gcircumflex" unicode="&#x11c;" horiz-adv-x="705" 
d="M650 342v-342h-58v60c-43 -37 -119 -73 -213 -73c-201 0 -349 147 -349 359s149 360 350 360c132 0 216 -61 255 -111l-40 -37c-41 46 -108 94 -215 94c-169 0 -288 -126 -288 -306c0 -181 119 -305 288 -305c88 0 160 31 212 83v164h-140v54h198zM347 856h58l113 -123
h-62l-79 82l-79 -82h-64z" />
    <glyph glyph-name="Gcommaaccent" unicode="&#x122;" horiz-adv-x="705" 
d="M650 342v-342h-58v60c-43 -37 -119 -73 -213 -73c-201 0 -349 147 -349 359s149 360 350 360c132 0 216 -61 255 -111l-40 -37c-41 46 -108 94 -215 94c-169 0 -288 -126 -288 -306c0 -181 119 -305 288 -305c88 0 160 31 212 83v164h-140v54h198zM324 -234l44 98
c-25 5 -39 22 -39 46c0 29 21 47 48 47c28 0 48 -21 48 -48c0 -21 -9 -38 -18 -57l-40 -86h-43z" />
    <glyph glyph-name="Gdotaccent" unicode="&#x120;" horiz-adv-x="705" 
d="M650 342v-342h-58v60c-43 -37 -119 -73 -213 -73c-201 0 -349 147 -349 359s149 360 350 360c132 0 216 -61 255 -111l-40 -37c-41 46 -108 94 -215 94c-169 0 -288 -126 -288 -306c0 -181 119 -305 288 -305c88 0 160 31 212 83v164h-140v54h198zM377 752
c-26 0 -47 20 -47 47s21 47 47 47s47 -20 47 -47s-21 -47 -47 -47z" />
    <glyph glyph-name="Hbar" unicode="&#x126;" horiz-adv-x="632" 
d="M566 692v-121h61v-51h-61v-520h-59v334h-382v-334h-59v520h-61v51h61v121h59v-121h382v121h59zM125 389h382v131h-382v-131z" />
    <glyph glyph-name="Hcircumflex" unicode="&#x124;" horiz-adv-x="624" 
d="M562 692v-692h-59v334h-382v-334h-59v692h59v-303h382v303h59zM283 856h58l113 -123h-62l-79 82l-79 -82h-64z" />
    <glyph glyph-name="Idotaccent" unicode="&#x130;" horiz-adv-x="183" 
d="M121 692v-692h-59v692h59zM90 752c-26 0 -47 20 -47 47s21 47 47 47s47 -20 47 -47s-21 -47 -47 -47z" />
    <glyph glyph-name="Ibreve" unicode="&#x12c;" horiz-adv-x="183" 
d="M121 692v-692h-59v692h59zM92 737c-101 0 -128 79 -129 119h50c2 -24 17 -70 79 -70s77 46 79 70h48c-1 -41 -30 -119 -127 -119z" />
    <glyph glyph-name="Imacron" unicode="&#x12a;" horiz-adv-x="183" 
d="M121 692v-692h-59v692h59zM-22 758v48h226v-48h-226z" />
    <glyph glyph-name="Iogonek" unicode="&#x12e;" horiz-adv-x="183" 
d="M121 692v-697c-41 -21 -55 -47 -55 -73c0 -35 28 -50 66 -51v-46c-78 -1 -120 38 -120 92c0 29 13 58 50 83v692h59z" />
    <glyph glyph-name="Itilde" unicode="&#x128;" horiz-adv-x="183" 
d="M121 692v-692h-59v692h59zM152 744c-56 0 -81 51 -125 51c-24 0 -37 -19 -38 -49h-46c0 55 32 100 89 100c54 0 80 -51 123 -51c24 0 37 19 38 50h46c-1 -59 -35 -101 -87 -101z" />
    <glyph glyph-name="Jcircumflex" unicode="&#x134;" horiz-adv-x="238" 
d="M113 856h58l100 -123h-58l-70 84l-70 -84h-60zM177 692v-573c0 -74 -25 -120 -119 -120c-23 0 -39 1 -39 1v52h39c49 0 60 28 60 68v572h59z" />
    <glyph glyph-name="Kcommaaccent" unicode="&#x136;" horiz-adv-x="493" 
d="M121 692v-314l287 314h73l-304 -330l319 -362h-74l-301 335v-335h-59v692h59zM199 -234l44 98c-25 5 -39 22 -39 46c0 29 21 47 48 47c28 0 48 -21 48 -48c0 -21 -9 -38 -18 -57l-40 -86h-43z" />
    <glyph glyph-name="Lacute" unicode="&#x139;" horiz-adv-x="368" 
d="M346 0h-284v692h59v-638h225v-54zM146 856h60l-77 -123h-59z" />
    <glyph glyph-name="Lcaron" unicode="&#x13d;" horiz-adv-x="368" 
d="M346 0h-284v692h59v-638h225v-54zM182 692h53l-18 -149h-51z" />
    <glyph glyph-name="Lcommaaccent" unicode="&#x13b;" horiz-adv-x="368" 
d="M346 0h-284v692h59v-638h225v-54zM150 -234l44 98c-25 5 -39 22 -39 46c0 29 21 47 48 47c28 0 48 -21 48 -48c0 -21 -9 -38 -18 -57l-40 -86h-43z" />
    <glyph glyph-name="Ldot" unicode="&#x13f;" horiz-adv-x="368" 
d="M276 305c-27 0 -49 21 -49 49s22 49 49 49s49 -21 49 -49s-22 -49 -49 -49zM346 0h-284v692h59v-638h225v-54z" />
    <glyph glyph-name="Nacute" unicode="&#x143;" horiz-adv-x="648" 
d="M525 0l-404 591v-591h-59v692h61l404 -595v595h59v-692h-61zM371 856h60l-77 -123h-59z" />
    <glyph glyph-name="Ncaron" unicode="&#x147;" horiz-adv-x="648" 
d="M525 0l-404 591v-591h-59v692h61l404 -595v595h59v-692h-61zM362 733h-58l-113 123h64l79 -84l79 84h62z" />
    <glyph glyph-name="Ncommaaccent" unicode="&#x145;" horiz-adv-x="648" 
d="M525 0l-404 591v-591h-59v692h61l404 -595v595h59v-692h-61zM281 -234l44 98c-25 5 -39 22 -39 46c0 29 21 47 48 47c28 0 48 -21 48 -48c0 -21 -9 -38 -18 -57l-40 -86h-43z" />
    <glyph glyph-name="Nacute.pl" horiz-adv-x="648" 
d="M525 0l-404 591v-591h-59v692h61l404 -595v595h59v-692h-61zM345 856h52l-41 -123h-53z" />
    <glyph glyph-name="Obreve" unicode="&#x14e;" horiz-adv-x="759" 
d="M30 346c0 212 150 360 349 360c201 0 350 -151 350 -360c0 -207 -150 -359 -351 -359c-200 0 -348 147 -348 359zM91 346c0 -181 120 -305 288 -305s289 124 289 305c0 180 -121 306 -289 306s-288 -126 -288 -306zM383 737c-101 0 -128 79 -129 119h50
c2 -24 17 -70 79 -70s77 46 79 70h48c-1 -41 -30 -119 -127 -119z" />
    <glyph glyph-name="Ohungarumlaut" unicode="&#x150;" horiz-adv-x="759" 
d="M30 346c0 212 150 360 349 360c201 0 350 -151 350 -360c0 -207 -150 -359 -351 -359c-200 0 -348 147 -348 359zM91 346c0 -181 120 -305 288 -305s289 124 289 305c0 180 -121 306 -289 306s-288 -126 -288 -306zM355 856h57l-63 -123h-58zM486 856h57l-63 -123h-58z
" />
    <glyph glyph-name="Omacron" unicode="&#x14c;" horiz-adv-x="759" 
d="M30 346c0 212 150 360 349 360c201 0 350 -151 350 -360c0 -207 -150 -359 -351 -359c-200 0 -348 147 -348 359zM91 346c0 -181 120 -305 288 -305s289 124 289 305c0 180 -121 306 -289 306s-288 -126 -288 -306zM267 758v48h226v-48h-226z" />
    <glyph glyph-name="Oslashacute" unicode="&#x1fe;" horiz-adv-x="759" 
d="M28 346c0 212 150 360 349 360c82 0 154 -25 212 -69l56 66l42 -35l-57 -67c60 -64 97 -153 97 -255c0 -207 -150 -359 -351 -359c-82 0 -156 25 -214 69l-56 -66l-41 34l57 67c-59 63 -94 151 -94 255zM666 346c0 85 -27 158 -74 211l-393 -458c48 -37 109 -58 178 -58
c168 0 289 124 289 305zM89 346c0 -85 26 -157 71 -210l393 459c-48 36 -108 57 -176 57c-168 0 -288 -126 -288 -306zM431 856h60l-77 -123h-59z" />
    <glyph glyph-name="Oacute.pl" horiz-adv-x="759" 
d="M30 346c0 212 150 360 349 360c201 0 350 -151 350 -360c0 -207 -150 -359 -351 -359c-200 0 -348 147 -348 359zM91 346c0 -181 120 -305 288 -305s289 124 289 305c0 180 -121 306 -289 306s-288 -126 -288 -306zM400 856h52l-41 -123h-53z" />
    <glyph glyph-name="Racute" unicode="&#x154;" horiz-adv-x="461" 
d="M402 514c0 -90 -48 -149 -120 -173l183 -341h-63l-179 330h-102v-330h-59v692h145c121 0 195 -58 195 -178zM207 639h-86v-256h86c88 0 133 50 133 130c0 79 -43 126 -133 126zM246 856h60l-77 -123h-59z" />
    <glyph glyph-name="Rcaron" unicode="&#x158;" horiz-adv-x="461" 
d="M402 514c0 -90 -48 -149 -120 -173l183 -341h-63l-179 330h-102v-330h-59v692h145c121 0 195 -58 195 -178zM207 639h-86v-256h86c88 0 133 50 133 130c0 79 -43 126 -133 126zM243 733h-58l-113 123h64l79 -84l79 84h62z" />
    <glyph glyph-name="Rcommaaccent" unicode="&#x156;" horiz-adv-x="462" 
d="M402 514c0 -90 -48 -149 -120 -173l183 -341h-63l-179 330h-102v-330h-59v692h145c121 0 195 -58 195 -178zM207 639h-86v-256h86c88 0 133 50 133 130c0 79 -43 126 -133 126zM199 -234l44 98c-25 5 -39 22 -39 46c0 29 21 47 48 47c28 0 48 -21 48 -48
c0 -21 -9 -38 -18 -57l-40 -86h-43z" />
    <glyph glyph-name="Sacute" unicode="&#x15a;" horiz-adv-x="468" 
d="M111 536c0 -56 29 -89 70 -112c49 -27 102 -41 151 -68c64 -36 104 -91 104 -175c0 -108 -77 -193 -199 -193c-141 0 -205 91 -205 213h59c1 -91 42 -161 146 -161c80 0 139 49 139 137c0 64 -30 101 -75 127c-50 29 -106 42 -157 72c-56 33 -91 81 -91 161
c0 91 68 168 180 168c136 0 183 -95 182 -183h-54c-4 75 -44 133 -129 133c-78 0 -121 -50 -121 -119zM272 856h60l-77 -123h-59z" />
    <glyph glyph-name="Scedilla" unicode="&#x15e;" horiz-adv-x="468" 
d="M192 -245h-20v46h20c37 0 67 14 67 57c0 39 -25 56 -67 56h-20v81c-96 26 -140 104 -140 206h59c1 -91 42 -161 146 -161c80 0 139 49 139 137c0 64 -30 101 -75 127c-50 29 -106 42 -157 72c-56 33 -91 81 -91 161c0 91 68 168 180 168c136 0 183 -95 182 -183h-54
c-4 75 -44 133 -129 133c-78 0 -121 -50 -121 -119c0 -56 29 -89 70 -112c49 -27 102 -41 151 -68c64 -36 104 -91 104 -175c0 -108 -77 -193 -199 -193c-7 0 -9 0 -20 1v-31c64 -8 92 -46 92 -100c0 -69 -53 -103 -117 -103z" />
    <glyph glyph-name="Scircumflex" unicode="&#x15c;" horiz-adv-x="468" 
d="M111 536c0 -56 29 -89 70 -112c49 -27 102 -41 151 -68c64 -36 104 -91 104 -175c0 -108 -77 -193 -199 -193c-141 0 -205 91 -205 213h59c1 -91 42 -161 146 -161c80 0 139 49 139 137c0 64 -30 101 -75 127c-50 29 -106 42 -157 72c-56 33 -91 81 -91 161
c0 91 68 168 180 168c136 0 183 -95 182 -183h-54c-4 75 -44 133 -129 133c-78 0 -121 -50 -121 -119zM204 856h58l113 -123h-62l-79 82l-79 -82h-64z" />
    <glyph glyph-name="Scommaaccent" unicode="&#x218;" horiz-adv-x="468" 
d="M111 536c0 -56 29 -89 70 -112c49 -27 102 -41 151 -68c64 -36 104 -91 104 -175c0 -108 -77 -193 -199 -193c-141 0 -205 91 -205 213h59c1 -91 42 -161 146 -161c80 0 139 49 139 137c0 64 -30 101 -75 127c-50 29 -106 42 -157 72c-56 33 -91 81 -91 161
c0 91 68 168 180 168c136 0 183 -95 182 -183h-54c-4 75 -44 133 -129 133c-78 0 -121 -50 -121 -119zM180 -234l44 98c-25 5 -39 22 -39 46c0 29 21 47 48 47c28 0 48 -21 48 -48c0 -21 -9 -38 -18 -57l-40 -86h-43z" />
    <glyph glyph-name="Sacute.pl" horiz-adv-x="468" 
d="M111 536c0 -56 29 -89 70 -112c49 -27 102 -41 151 -68c64 -36 104 -91 104 -175c0 -108 -77 -193 -199 -193c-141 0 -205 91 -205 213h59c1 -91 42 -161 146 -161c80 0 139 49 139 137c0 64 -30 101 -75 127c-50 29 -106 42 -157 72c-56 33 -91 81 -91 161
c0 91 68 168 180 168c136 0 183 -95 182 -183h-54c-4 75 -44 133 -129 133c-78 0 -121 -50 -121 -119zM251 856h52l-41 -123h-53z" />
    <glyph glyph-name="Tcaron" unicode="&#x164;" horiz-adv-x="408" 
d="M390 638h-158v-638h-59v638h-155v54h372v-54zM232 733h-58l-113 123h64l79 -84l79 84h62z" />
    <glyph glyph-name="Tcommaaccent" unicode="&#x162;" horiz-adv-x="408" 
d="M390 638h-158v-638h-59v638h-155v54h372v-54zM150 -234l44 98c-25 5 -39 22 -39 46c0 29 21 47 48 47c28 0 48 -21 48 -48c0 -21 -9 -38 -18 -57l-40 -86h-43z" />
    <glyph glyph-name="uni021A" unicode="&#x21a;" horiz-adv-x="408" 
d="M390 638h-158v-638h-59v638h-155v54h372v-54zM150 -234l44 98c-25 5 -39 22 -39 46c0 29 21 47 48 47c28 0 48 -21 48 -48c0 -21 -9 -38 -18 -57l-40 -86h-43z" />
    <glyph glyph-name="Tbar" unicode="&#x166;" horiz-adv-x="408" 
d="M390 638h-158v-214h112v-51h-112v-373h-59v373h-109v51h109v214h-155v54h372v-54z" />
    <glyph glyph-name="Ubreve" unicode="&#x16c;" horiz-adv-x="613" 
d="M307 -13c-169 0 -250 105 -250 265v440h59v-439c0 -128 58 -212 191 -212c124 0 191 88 191 212v439h58v-440c0 -154 -94 -265 -249 -265zM307 737c-101 0 -128 79 -129 119h50c2 -24 17 -70 79 -70s77 46 79 70h48c-1 -41 -30 -119 -127 -119z" />
    <glyph glyph-name="Uhungarumlaut" unicode="&#x170;" horiz-adv-x="613" 
d="M307 -13c-169 0 -250 105 -250 265v440h59v-439c0 -128 58 -212 191 -212c124 0 191 88 191 212v439h58v-440c0 -154 -94 -265 -249 -265zM268 856h57l-63 -123h-58zM399 856h57l-63 -123h-58z" />
    <glyph glyph-name="Umacron" unicode="&#x16a;" horiz-adv-x="613" 
d="M307 -13c-169 0 -250 105 -250 265v440h59v-439c0 -128 58 -212 191 -212c124 0 191 88 191 212v439h58v-440c0 -154 -94 -265 -249 -265zM194 766v48h220v-48h-220z" />
    <glyph glyph-name="Uogonek" unicode="&#x172;" horiz-adv-x="613" 
d="M390 -1c-57 -18 -71 -51 -71 -77c0 -33 28 -50 66 -51v-46c-78 -1 -120 40 -120 92c0 23 10 49 33 70c-164 4 -241 108 -241 265v440h59v-439c0 -126 57 -212 191 -212c125 0 191 88 191 212v439h59v-440c0 -126 -63 -220 -167 -253z" />
    <glyph glyph-name="Uring" unicode="&#x16e;" horiz-adv-x="613" 
d="M307 -13c-169 0 -250 105 -250 265v440h59v-439c0 -128 58 -212 191 -212c124 0 191 88 191 212v439h58v-440c0 -154 -94 -265 -249 -265zM209 816c0 56 40 96 96 96c62 0 99 -40 99 -94c0 -56 -39 -96 -98 -96c-58 0 -97 40 -97 94zM254 816c0 -30 20 -52 52 -52
c35 0 53 22 53 54c0 30 -18 52 -54 52c-31 0 -51 -22 -51 -54z" />
    <glyph glyph-name="Utilde" unicode="&#x168;" horiz-adv-x="613" 
d="M307 -13c-169 0 -250 105 -250 265v440h59v-439c0 -128 58 -212 191 -212c124 0 191 88 191 212v439h58v-440c0 -154 -94 -265 -249 -265zM369 748c-56 0 -78 51 -122 51c-24 0 -35 -19 -36 -49h-46c0 55 30 100 87 100c54 0 78 -51 121 -51c24 0 35 19 36 50h46
c-1 -59 -33 -101 -86 -101z" />
    <glyph glyph-name="Wacute" unicode="&#x1e82;" horiz-adv-x="976" 
d="M687 0l-197 610l-198 -610h-60l-227 692h63l195 -608l195 608h65l194 -608l195 608h59l-225 -692h-59zM535 856h60l-77 -123h-59z" />
    <glyph glyph-name="Wcircumflex" unicode="&#x174;" horiz-adv-x="976" 
d="M687 0l-197 610l-198 -610h-60l-227 692h63l195 -608l195 608h65l194 -608l195 608h59l-225 -692h-59zM456 856h58l113 -123h-62l-79 82l-79 -82h-64z" />
    <glyph glyph-name="Wdieresis" unicode="&#x1e84;" horiz-adv-x="976" 
d="M687 0l-197 610l-198 -610h-60l-227 692h63l195 -608l195 608h65l194 -608l195 608h59l-225 -692h-59zM402 749c-26 0 -46 20 -46 46c0 25 20 46 46 46c24 0 46 -21 46 -46c0 -26 -22 -46 -46 -46zM579 749c-26 0 -46 20 -46 46c0 25 20 46 46 46c24 0 46 -21 46 -46
c0 -26 -22 -46 -46 -46z" />
    <glyph glyph-name="Wgrave" unicode="&#x1e80;" horiz-adv-x="976" 
d="M687 0l-197 610l-198 -610h-60l-227 692h63l195 -608l195 608h65l194 -608l195 608h59l-225 -692h-59zM378 856h59l76 -123h-58z" />
    <glyph glyph-name="Ycircumflex" unicode="&#x176;" horiz-adv-x="453" 
d="M197 363l-197 329h68l160 -270l160 270h65l-197 -329v-363h-59v363zM198 856h58l113 -123h-62l-79 82l-79 -82h-64z" />
    <glyph glyph-name="Ygrave" unicode="&#x1ef2;" horiz-adv-x="453" 
d="M197 363l-197 329h68l160 -270l160 270h65l-197 -329v-363h-59v363zM125 856h59l76 -123h-58z" />
    <glyph glyph-name="Zacute" unicode="&#x179;" horiz-adv-x="594" 
d="M564 0h-534v53l456 584h-448v55h526v-53l-460 -584h460v-55zM331 856h60l-77 -123h-59z" />
    <glyph glyph-name="Zdotaccent" unicode="&#x17b;" horiz-adv-x="594" 
d="M564 0h-534v53l456 584h-448v55h526v-53l-460 -584h460v-55zM295 752c-26 0 -47 20 -47 47s21 47 47 47s47 -20 47 -47s-21 -47 -47 -47z" />
    <glyph glyph-name="Zacute.pl" horiz-adv-x="594" 
d="M564 0h-534v53l456 584h-448v55h526v-53l-460 -584h460v-55zM306 856h52l-41 -123h-53z" />
    <glyph glyph-name="abreve" unicode="&#x103;" horiz-adv-x="449" 
d="M31 164c0 100 72 174 178 174c60 0 106 -26 127 -53v71c0 89 -43 137 -120 137c-80 0 -110 -51 -112 -107h-55c1 85 56 155 169 155c118 0 175 -73 175 -188v-353h-57v49c-25 -33 -67 -58 -127 -58c-101 0 -178 67 -178 173zM88 164c0 -71 49 -125 124 -125
c73 0 126 53 126 125s-53 126 -127 126c-76 0 -123 -54 -123 -126zM214 577c-102 0 -128 81 -129 123h49c2 -27 17 -75 80 -75s78 48 80 75h47c0 -43 -28 -123 -127 -123z" />
    <glyph glyph-name="amacron" unicode="&#x101;" horiz-adv-x="449" 
d="M31 164c0 100 72 174 178 174c60 0 106 -26 127 -53v71c0 89 -43 137 -120 137c-80 0 -110 -51 -112 -107h-55c1 85 56 155 169 155c118 0 175 -73 175 -188v-353h-57v49c-25 -33 -67 -58 -127 -58c-101 0 -178 67 -178 173zM88 164c0 -71 49 -125 124 -125
c73 0 126 53 126 125s-53 126 -127 126c-76 0 -123 -54 -123 -126zM109 609v48h220v-48h-220z" />
    <glyph glyph-name="aogonek" unicode="&#x105;" horiz-adv-x="449" 
d="M31 164c0 100 72 174 178 174c60 0 106 -26 127 -53v71c0 89 -43 137 -120 137c-80 0 -110 -51 -112 -107h-55c1 85 56 155 169 155c118 0 175 -73 175 -188v-358c-49 -19 -66 -44 -66 -74c0 -36 28 -51 66 -52v-46c-78 -1 -120 38 -120 93c0 33 16 66 63 92v41
c-25 -33 -67 -58 -127 -58c-101 0 -178 67 -178 173zM88 164c0 -71 49 -125 124 -125c73 0 126 53 126 125s-53 126 -127 126c-76 0 -123 -54 -123 -126z" />
    <glyph glyph-name="aringacute" unicode="&#x1fb;" horiz-adv-x="449" 
d="M274 909h59l-76 -123h-58zM32 164c0 100 72 174 178 174c60 0 106 -26 127 -53v71c0 89 -43 137 -120 137c-80 0 -110 -51 -112 -107h-55c1 85 56 155 169 155c118 0 175 -73 175 -188v-353h-57v49c-25 -33 -67 -58 -127 -58c-101 0 -178 67 -178 173zM89 164
c0 -71 49 -125 124 -125c73 0 126 53 126 125s-53 126 -127 126c-76 0 -123 -54 -123 -126zM127 659c0 56 40 96 96 96c62 0 99 -40 99 -94c0 -56 -39 -96 -98 -96c-58 0 -97 40 -97 94zM171 659c0 -30 20 -53 53 -53c36 0 54 23 54 55c0 30 -18 53 -55 53
c-32 0 -52 -23 -52 -55z" />
    <glyph glyph-name="aeacute" unicode="&#x1fd;" horiz-adv-x="866" 
d="M593 -6c-97 0 -174 40 -220 109c-17 -50 -62 -112 -162 -112c-102 0 -180 67 -180 173c0 100 72 174 178 174c55 0 100 -21 123 -46v64c0 89 -38 137 -115 137c-79 0 -107 -53 -108 -107h-55c0 82 54 155 165 155c85 0 138 -42 156 -109c46 69 120 109 210 109
c151 0 254 -98 258 -257c0 -7 0 -22 -1 -33h-454c1 -119 85 -205 205 -205c100 0 157 50 195 132l45 -20c-36 -93 -117 -164 -240 -164zM583 489c-113 0 -188 -84 -194 -188h393c-5 121 -88 188 -199 188zM88 164c0 -71 49 -125 124 -125c73 0 126 53 126 125
c0 73 -52 126 -127 126c-76 0 -123 -54 -123 -126zM452 717h59l-80 -132h-58z" />
    <glyph glyph-name="cacute" unicode="&#x107;" horiz-adv-x="526" 
d="M299 43c81 0 131 34 172 78l36 -31c-32 -43 -101 -99 -209 -99c-161 0 -272 118 -272 276s116 277 272 277c112 0 178 -54 207 -96l-40 -33c-38 44 -91 77 -168 77c-123 0 -210 -96 -210 -225c0 -132 93 -224 212 -224zM335 717h59l-80 -132h-58z" />
    <glyph glyph-name="ccaron" unicode="&#x10d;" horiz-adv-x="526" 
d="M299 43c81 0 131 34 172 78l36 -31c-32 -43 -101 -99 -209 -99c-161 0 -272 118 -272 276s116 277 272 277c112 0 178 -54 207 -96l-40 -33c-38 44 -91 77 -168 77c-123 0 -210 -96 -210 -225c0 -132 93 -224 212 -224zM317 584h-59l-106 139h58l78 -98l77 98h58z" />
    <glyph glyph-name="ccircumflex" unicode="&#x109;" horiz-adv-x="526" 
d="M299 43c81 0 131 34 172 78l36 -31c-32 -43 -101 -99 -209 -99c-161 0 -272 118 -272 276s116 277 272 277c112 0 178 -54 207 -96l-40 -33c-38 44 -91 77 -168 77c-123 0 -210 -96 -210 -225c0 -132 93 -224 212 -224zM260 718h59l106 -139h-58l-77 96l-78 -96h-58z" />
    <glyph glyph-name="cdotaccent" unicode="&#x10b;" horiz-adv-x="526" 
d="M299 43c81 0 131 34 172 78l36 -31c-32 -43 -101 -99 -209 -99c-161 0 -272 118 -272 276s116 277 272 277c112 0 178 -54 207 -96l-40 -33c-38 44 -91 77 -168 77c-123 0 -210 -96 -210 -225c0 -132 93 -224 212 -224zM285 605c-26 0 -47 20 -47 47s21 47 47 47
s47 -20 47 -47s-21 -47 -47 -47z" />
    <glyph glyph-name="cacute.pl" horiz-adv-x="521" 
d="M299 43c81 0 131 34 172 78l36 -31c-32 -43 -101 -99 -209 -99c-161 0 -272 118 -272 276s116 277 272 277c112 0 178 -54 207 -96l-40 -33c-38 44 -91 77 -168 77c-123 0 -210 -96 -210 -225c0 -132 93 -224 212 -224zM303 717h51l-42 -132h-52z" />
    <glyph glyph-name="dcaron" unicode="&#x10f;" 
d="M509 0v104c-24 -47 -96 -113 -209 -113c-158 0 -272 111 -272 276c0 160 117 277 272 277c93 0 173 -47 209 -106v293h58v-731h-58zM88 267c0 -132 89 -224 212 -224s212 92 212 224c0 131 -89 225 -212 225s-212 -94 -212 -225zM628 731h53l-18 -149h-51z" />
    <glyph glyph-name="ebreve" unicode="&#x115;" horiz-adv-x="573" 
d="M549 251h-461c7 -128 87 -208 209 -208c101 0 159 50 199 133l45 -20c-38 -94 -121 -165 -244 -165c-159 0 -269 111 -269 276c0 162 109 277 261 277c153 0 257 -99 261 -260c0 -7 0 -22 -1 -33zM287 492c-107 0 -185 -70 -197 -191h399c-5 123 -89 191 -202 191z
M289 577c-102 0 -128 81 -129 123h49c2 -27 17 -75 80 -75s78 48 80 75h47c0 -43 -28 -123 -127 -123z" />
    <glyph glyph-name="ecaron" unicode="&#x11b;" horiz-adv-x="573" 
d="M549 251h-461c7 -128 87 -208 209 -208c101 0 159 50 199 133l45 -20c-38 -94 -121 -165 -244 -165c-159 0 -269 111 -269 276c0 162 109 277 261 277c153 0 257 -99 261 -260c0 -7 0 -22 -1 -33zM287 492c-107 0 -185 -70 -197 -191h399c-5 123 -89 191 -202 191z
M318 584h-59l-106 139h58l78 -98l77 98h58z" />
    <glyph glyph-name="edotaccent" unicode="&#x117;" horiz-adv-x="573" 
d="M549 251h-461c7 -128 87 -208 209 -208c101 0 159 50 199 133l45 -20c-38 -94 -121 -165 -244 -165c-159 0 -269 111 -269 276c0 162 109 277 261 277c153 0 257 -99 261 -260c0 -7 0 -22 -1 -33zM287 492c-107 0 -185 -70 -197 -191h399c-5 123 -89 191 -202 191z
M288 605c-26 0 -47 20 -47 47s21 47 47 47s47 -20 47 -47s-21 -47 -47 -47z" />
    <glyph glyph-name="emacron" unicode="&#x113;" horiz-adv-x="573" 
d="M549 251h-461c7 -128 87 -208 209 -208c101 0 159 50 199 133l45 -20c-38 -94 -121 -165 -244 -165c-159 0 -269 111 -269 276c0 162 109 277 261 277c153 0 257 -99 261 -260c0 -7 0 -22 -1 -33zM287 492c-107 0 -185 -70 -197 -191h399c-5 123 -89 191 -202 191z
M177 609v48h220v-48h-220z" />
    <glyph glyph-name="eogonek" unicode="&#x119;" horiz-adv-x="573" 
d="M330 -82c0 27 12 56 35 81c-21 -5 -44 -8 -68 -8c-159 0 -269 111 -269 276c0 162 109 277 261 277c153 0 257 -99 261 -260c0 -7 0 -22 -1 -33h-461c7 -128 87 -208 209 -208c101 0 159 50 199 133l45 -20c-15 -37 -37 -71 -65 -97c-68 -62 -92 -91 -92 -134
c0 -42 35 -56 82 -55v-45c-91 -4 -136 37 -136 93zM287 492c-107 0 -185 -70 -197 -191h399c-5 123 -89 191 -202 191z" />
    <glyph glyph-name="gbreve" unicode="&#x11f;" 
d="M509 438v97h58v-443c0 -202 -126 -274 -274 -274c-99 0 -176 34 -218 66l30 46c37 -27 101 -60 189 -60c116 0 215 56 215 207v27c-24 -47 -96 -113 -209 -113c-158 0 -272 111 -272 276c0 160 117 277 272 277c93 0 173 -47 209 -106zM88 267c0 -132 89 -224 212 -224
s212 92 212 224c0 131 -89 225 -212 225s-212 -94 -212 -225zM304 577c-102 0 -128 81 -129 123h49c2 -27 17 -75 80 -75s78 48 80 75h47c0 -43 -28 -123 -127 -123z" />
    <glyph glyph-name="gcircumflex" unicode="&#x11d;" 
d="M509 438v97h58v-443c0 -202 -126 -274 -274 -274c-99 0 -176 34 -218 66l30 46c37 -27 101 -60 189 -60c116 0 215 56 215 207v27c-24 -47 -96 -113 -209 -113c-158 0 -272 111 -272 276c0 160 117 277 272 277c93 0 173 -47 209 -106zM88 267c0 -132 89 -224 212 -224
s212 92 212 224c0 131 -89 225 -212 225s-212 -94 -212 -225zM275 718h59l106 -139h-58l-77 96l-78 -96h-58z" />
    <glyph glyph-name="gcommaaccent" unicode="&#x123;" 
d="M509 438v97h58v-443c0 -202 -126 -274 -274 -274c-99 0 -176 34 -218 66l30 46c37 -27 101 -60 189 -60c116 0 215 56 215 207v27c-24 -47 -96 -113 -209 -113c-158 0 -272 111 -272 276c0 160 117 277 272 277c93 0 173 -47 209 -106zM88 267c0 -132 89 -224 212 -224
s212 92 212 224c0 131 -89 225 -212 225s-212 -94 -212 -225zM354 772l-44 -98c25 -5 39 -21 39 -45c0 -30 -21 -48 -48 -48c-28 0 -48 21 -48 48c0 21 9 38 18 57l40 86h43z" />
    <glyph glyph-name="gdotaccent" unicode="&#x121;" 
d="M509 438v97h58v-443c0 -202 -126 -274 -274 -274c-99 0 -176 34 -218 66l30 46c37 -27 101 -60 189 -60c116 0 215 56 215 207v27c-24 -47 -96 -113 -209 -113c-158 0 -272 111 -272 276c0 160 117 277 272 277c93 0 173 -47 209 -106zM88 267c0 -132 89 -224 212 -224
s212 92 212 224c0 131 -89 225 -212 225s-212 -94 -212 -225zM303 605c-26 0 -47 20 -47 47s21 47 47 47s47 -20 47 -47s-21 -47 -47 -47z" />
    <glyph glyph-name="hbar" unicode="&#x127;" horiz-adv-x="472" 
d="M6 603v48h56v80h58v-80h124v-48h-124v-127c18 31 60 65 128 65c120 0 168 -83 168 -187v-354h-58v349c0 88 -37 140 -116 140c-80 0 -122 -58 -122 -145v-344h-58v603h-56z" />
    <glyph glyph-name="hcircumflex" unicode="&#x125;" horiz-adv-x="468" 
d="M354 0v349c0 88 -37 140 -116 140c-80 0 -122 -58 -122 -145v-344h-58v731h58v-255c18 31 60 65 128 65c120 0 168 -83 168 -187v-354h-58zM203 890h58l113 -123h-62l-79 82l-79 -82h-64z" />
    <glyph glyph-name="ibreve" unicode="&#x12d;" horiz-adv-x="174" 
d="M116 535v-535h-58v535h58zM87 577c-102 0 -128 81 -129 123h49c2 -27 17 -75 80 -75s78 48 80 75h47c0 -43 -28 -123 -127 -123z" />
    <glyph glyph-name="imacron" unicode="&#x12b;" horiz-adv-x="174" 
d="M-4 609v48h182v-48h-182zM116 535v-535h-58v535h58z" />
    <glyph glyph-name="iogonek" unicode="&#x12f;" horiz-adv-x="174" 
d="M116 535v-540c-49 -19 -66 -44 -66 -73c0 -35 29 -50 66 -51v-46c-77 -1 -120 38 -120 92c0 32 16 65 62 90v528h58zM87 605c-26 0 -47 20 -47 47s21 47 47 47s47 -20 47 -47s-21 -47 -47 -47z" />
    <glyph glyph-name="itilde" unicode="&#x129;" horiz-adv-x="174" 
d="M116 535v-535h-58v535h58zM146 591c-56 0 -78 51 -122 51c-24 0 -35 -19 -36 -49h-46c0 55 30 100 87 100c54 0 78 -51 121 -51c24 0 35 19 36 50h46c-1 -59 -33 -101 -86 -101z" />
    <glyph glyph-name="idotaccent" horiz-adv-x="174" 
d="M116 535v-535h-58v535h58zM87 605c-26 0 -47 20 -47 47s21 47 47 47s47 -20 47 -47s-21 -47 -47 -47z" />
    <glyph glyph-name="jcircumflex" unicode="&#x135;" horiz-adv-x="174" 
d="M116 535v-557c0 -93 -34 -153 -138 -153h-22v51h21c69 0 81 43 81 100v559h58zM57 718h59l106 -139h-58l-77 96l-78 -96h-58z" />
    <glyph glyph-name="kcommaaccent" unicode="&#x137;" horiz-adv-x="431" 
d="M423 535l-245 -252l254 -283h-74l-242 266v-266h-58v731h58v-438l231 242h76zM174 -234l44 98c-25 5 -39 22 -39 46c0 29 21 47 48 47c28 0 48 -21 48 -48c0 -21 -9 -38 -18 -57l-40 -86h-43z" />
    <glyph glyph-name="lacute" unicode="&#x13a;" horiz-adv-x="174" 
d="M116 731v-731h-58v731h58zM134 891h60l-77 -123h-59z" />
    <glyph glyph-name="lcaron" unicode="&#x13e;" horiz-adv-x="174" 
d="M116 731v-731h-58v731h58zM177 731h53l-18 -149h-51z" />
    <glyph glyph-name="lcommaaccent" unicode="&#x13c;" horiz-adv-x="174" 
d="M116 731v-731h-58v731h58zM35 -234l44 98c-25 5 -39 22 -39 46c0 29 21 47 48 47c28 0 48 -21 48 -48c0 -21 -9 -38 -18 -57l-40 -86h-43z" />
    <glyph glyph-name="ldot" unicode="&#x140;" horiz-adv-x="236" 
d="M159 354c0 25 20 45 45 45s45 -20 45 -45s-20 -45 -45 -45s-45 20 -45 45zM116 731v-731h-58v731h58z" />
    <glyph glyph-name="nacute" unicode="&#x144;" horiz-adv-x="468" 
d="M354 0v349c0 88 -37 140 -116 140c-80 0 -122 -58 -122 -145v-344h-58v535h58v-56c17 28 60 62 128 62c120 0 168 -83 168 -187v-354h-58zM276 717h59l-80 -132h-58z" />
    <glyph glyph-name="napostrophe" unicode="&#x149;" horiz-adv-x="516" 
d="M402 0v349c0 88 -37 140 -116 140c-80 0 -122 -58 -122 -145v-344h-58v535h58v-56c17 28 60 62 128 62c120 0 168 -83 168 -187v-354h-58zM-11 504l39 100c-27 6 -40 25 -40 46c0 29 20 49 48 49c27 0 48 -21 48 -49c0 -19 -7 -34 -16 -57l-35 -89h-44z" />
    <glyph glyph-name="ncaron" unicode="&#x148;" horiz-adv-x="468" 
d="M354 0v349c0 88 -37 140 -116 140c-80 0 -122 -58 -122 -145v-344h-58v535h58v-56c17 28 60 62 128 62c120 0 168 -83 168 -187v-354h-58zM265 584h-59l-106 139h58l78 -98l77 98h58z" />
    <glyph glyph-name="ncommaaccent" unicode="&#x146;" horiz-adv-x="468" 
d="M354 0v349c0 88 -37 140 -116 140c-80 0 -122 -58 -122 -145v-344h-58v535h58v-56c17 28 60 62 128 62c120 0 168 -83 168 -187v-354h-58zM193 -234l44 98c-25 5 -39 22 -39 46c0 29 21 47 48 47c28 0 48 -21 48 -48c0 -21 -9 -38 -18 -57l-40 -86h-43z" />
    <glyph glyph-name="nacute.pl" horiz-adv-x="468" 
d="M354 0v349c0 88 -37 140 -116 140c-80 0 -122 -58 -122 -145v-344h-58v535h58v-56c17 28 60 62 128 62c120 0 168 -83 168 -187v-354h-58zM260 717h51l-42 -132h-52z" />
    <glyph glyph-name="obreve" unicode="&#x14f;" horiz-adv-x="603" 
d="M88 267c0 -132 89 -224 213 -224c123 0 214 92 214 224c0 130 -90 225 -214 225s-213 -94 -213 -225zM28 267c0 166 122 277 274 277c153 0 273 -114 273 -277c0 -162 -123 -276 -275 -276c-153 0 -272 109 -272 276zM302 577c-102 0 -128 81 -129 123h49
c2 -27 17 -75 80 -75s78 48 80 75h47c0 -43 -28 -123 -127 -123z" />
    <glyph glyph-name="ohungarumlaut" unicode="&#x151;" horiz-adv-x="603" 
d="M88 267c0 -132 89 -224 213 -224c123 0 214 92 214 224c0 130 -90 225 -214 225s-213 -94 -213 -225zM28 267c0 166 122 277 274 277c153 0 273 -114 273 -277c0 -162 -123 -276 -275 -276c-153 0 -272 109 -272 276zM274 717h57l-65 -132h-58zM405 717h57l-65 -132h-58z
" />
    <glyph glyph-name="omacron" unicode="&#x14d;" horiz-adv-x="603" 
d="M88 267c0 -132 89 -224 213 -224c123 0 214 92 214 224c0 130 -90 225 -214 225s-213 -94 -213 -225zM28 267c0 166 122 277 274 277c153 0 273 -114 273 -277c0 -162 -123 -276 -275 -276c-153 0 -272 109 -272 276zM191 609v48h220v-48h-220z" />
    <glyph glyph-name="oslashacute" unicode="&#x1ff;" horiz-adv-x="603" 
d="M28 267c0 166 122 277 274 277c61 0 117 -18 161 -50l43 50l40 -33l-44 -51c46 -49 73 -115 73 -193c0 -162 -123 -276 -275 -276c-60 0 -114 16 -159 47l-41 -48l-38 32l41 48c-47 48 -75 115 -75 197zM88 267c0 -62 19 -114 52 -153l287 337c-35 26 -78 41 -126 41
c-124 0 -213 -94 -213 -225zM515 267c0 59 -19 110 -50 149l-288 -336c34 -24 76 -37 124 -37c123 0 214 92 214 224zM354 717h59l-80 -132h-58z" />
    <glyph glyph-name="oacute.pl" horiz-adv-x="603" 
d="M88 267c0 -132 89 -224 213 -224c123 0 214 92 214 224c0 130 -90 225 -214 225s-213 -94 -213 -225zM28 267c0 166 122 277 274 277c153 0 273 -114 273 -277c0 -162 -123 -276 -275 -276c-153 0 -272 109 -272 276zM316 717h51l-42 -132h-52z" />
    <glyph glyph-name="racute" unicode="&#x155;" horiz-adv-x="270" 
d="M250 535v-57h-19c-77 0 -115 -49 -115 -132v-346h-58v535h58v-60c18 31 59 61 134 60zM197 717h59l-80 -132h-58z" />
    <glyph glyph-name="rcaron" unicode="&#x159;" horiz-adv-x="270" 
d="M250 535v-57h-19c-77 0 -115 -49 -115 -132v-346h-58v535h58v-60c18 31 59 61 134 60zM184 584h-59l-106 139h58l78 -98l77 98h58z" />
    <glyph glyph-name="rcommaaccent" unicode="&#x157;" horiz-adv-x="270" 
d="M250 535v-57h-19c-77 0 -115 -49 -115 -132v-346h-58v535h58v-60c18 31 59 61 134 60zM34 -234l44 98c-25 5 -39 22 -39 46c0 29 21 47 48 47c28 0 48 -21 48 -48c0 -21 -9 -38 -18 -57l-40 -86h-43z" />
    <glyph glyph-name="sacute" unicode="&#x15b;" horiz-adv-x="377" 
d="M93 409c0 -43 20 -67 59 -85c33 -15 63 -19 100 -34c66 -27 104 -69 104 -147c0 -93 -74 -149 -169 -149c-121 0 -167 78 -167 169h57c2 -66 29 -119 113 -120c57 -1 108 32 108 96c0 57 -29 83 -72 100c-34 14 -70 21 -104 37c-64 31 -86 74 -86 130
c0 82 62 135 152 135c112 0 151 -74 152 -155h-55c-3 66 -34 107 -98 107c-56 0 -94 -30 -94 -84zM243 717h59l-80 -132h-58z" />
    <glyph glyph-name="scedilla" unicode="&#x15f;" horiz-adv-x="377" 
d="M144 -245h-20v46h20c37 0 67 14 67 57c0 39 -25 56 -67 56h-20v88c-75 24 -104 88 -104 161h57c2 -66 29 -119 113 -120c57 -1 108 32 108 96c0 57 -29 83 -72 100c-34 14 -70 21 -104 37c-64 31 -86 74 -86 130c0 82 62 135 152 135c112 0 151 -74 152 -155h-55
c-3 66 -34 107 -98 107c-56 0 -94 -30 -94 -84c0 -43 20 -67 59 -85c33 -15 63 -19 100 -34c66 -27 104 -69 104 -147c0 -93 -74 -149 -169 -149c-6 0 -9 0 -18 1v-37c64 -8 92 -46 92 -100c0 -69 -53 -103 -117 -103z" />
    <glyph glyph-name="scircumflex" unicode="&#x15d;" horiz-adv-x="377" 
d="M93 409c0 -43 20 -67 59 -85c33 -15 63 -19 100 -34c66 -27 104 -69 104 -147c0 -93 -74 -149 -169 -149c-121 0 -167 78 -167 169h57c2 -66 29 -119 113 -120c57 -1 108 32 108 96c0 57 -29 83 -72 100c-34 14 -70 21 -104 37c-64 31 -86 74 -86 130
c0 82 62 135 152 135c112 0 151 -74 152 -155h-55c-3 66 -34 107 -98 107c-56 0 -94 -30 -94 -84zM158 718h59l106 -139h-58l-77 96l-78 -96h-58z" />
    <glyph glyph-name="scommaaccent" unicode="&#x219;" horiz-adv-x="377" 
d="M93 409c0 -43 20 -67 59 -85c33 -15 63 -19 100 -34c66 -27 104 -69 104 -147c0 -93 -74 -149 -169 -149c-121 0 -167 78 -167 169h57c2 -66 29 -119 113 -120c57 -1 108 32 108 96c0 57 -29 83 -72 100c-34 14 -70 21 -104 37c-64 31 -86 74 -86 130
c0 82 62 135 152 135c112 0 151 -74 152 -155h-55c-3 66 -34 107 -98 107c-56 0 -94 -30 -94 -84zM146 -234l44 98c-25 5 -39 22 -39 46c0 29 21 47 48 47c28 0 48 -21 48 -48c0 -21 -9 -38 -18 -57l-40 -86h-43z" />
    <glyph glyph-name="sacute.pl" horiz-adv-x="377" 
d="M93 409c0 -43 20 -67 59 -85c33 -15 63 -19 100 -34c66 -27 104 -69 104 -147c0 -93 -74 -149 -169 -149c-121 0 -167 78 -167 169h57c2 -66 29 -119 113 -120c57 -1 108 32 108 96c0 57 -29 83 -72 100c-34 14 -70 21 -104 37c-64 31 -86 74 -86 130
c0 82 62 135 152 135c112 0 151 -74 152 -155h-55c-3 66 -34 107 -98 107c-56 0 -94 -30 -94 -84zM205 717h51l-42 -132h-52z" />
    <glyph glyph-name="tbar" unicode="&#x167;" horiz-adv-x="256" 
d="M126 616v-81h114v-51h-114v-139h114v-48h-114v-163c0 -54 7 -85 68 -85h45v-51c-13 -1 -34 -2 -51 -2c-98 0 -120 46 -120 128v173h-58v48h58v139h-58v51h58v81h58z" />
    <glyph glyph-name="tcaron" unicode="&#x165;" horiz-adv-x="256" 
d="M126 616v-81h114v-51h-114v-350c0 -54 7 -85 68 -85h45v-51c-13 -1 -34 -2 -51 -2c-98 0 -120 46 -120 128v360h-58v51h58v81h58zM190 731h53l-18 -149h-51z" />
    <glyph glyph-name="tcommaaccent" unicode="&#x163;" horiz-adv-x="256" 
d="M126 616v-81h114v-51h-114v-350c0 -54 7 -85 68 -85h45v-51c-13 -1 -34 -2 -51 -2c-98 0 -120 46 -120 128v360h-58v51h58v81h58zM103 -234l44 98c-25 5 -39 22 -39 46c0 29 21 47 48 47c28 0 48 -21 48 -48c0 -21 -9 -38 -18 -57l-40 -86h-43z" />
    <glyph glyph-name="uni021B" unicode="&#x21b;" horiz-adv-x="256" 
d="M126 616v-81h114v-51h-114v-350c0 -54 7 -85 68 -85h45v-51c-13 -1 -34 -2 -51 -2c-98 0 -120 46 -120 128v360h-58v51h58v81h58zM103 -234l44 98c-25 5 -39 22 -39 46c0 29 21 47 48 47c28 0 48 -21 48 -48c0 -21 -9 -38 -18 -57l-40 -86h-43z" />
    <glyph glyph-name="ubreve" unicode="&#x16d;" horiz-adv-x="464" 
d="M113 535v-348c0 -88 37 -140 114 -140c79 0 121 58 121 145v343h58v-535h-58v58c-18 -32 -58 -64 -127 -64c-119 0 -166 83 -166 187v354h58zM230 577c-102 0 -128 81 -129 123h49c2 -27 17 -75 80 -75s78 48 80 75h47c0 -43 -28 -123 -127 -123z" />
    <glyph glyph-name="uhungarumlaut" unicode="&#x171;" horiz-adv-x="464" 
d="M113 535v-348c0 -88 37 -140 114 -140c79 0 121 58 121 145v343h58v-535h-58v58c-18 -32 -58 -64 -127 -64c-119 0 -166 83 -166 187v354h58zM195 717h57l-65 -132h-58zM326 717h57l-65 -132h-58z" />
    <glyph glyph-name="umacron" unicode="&#x16b;" horiz-adv-x="464" 
d="M113 535v-348c0 -88 37 -140 114 -140c79 0 121 58 121 145v343h58v-535h-58v58c-18 -32 -58 -64 -127 -64c-119 0 -166 83 -166 187v354h58zM122 609v48h220v-48h-220z" />
    <glyph glyph-name="uogonek" unicode="&#x173;" horiz-adv-x="464" 
d="M113 535v-348c0 -88 37 -140 114 -140c79 0 121 58 121 145v343h58v-540c-49 -19 -66 -44 -66 -73c0 -35 28 -50 66 -51v-46c-78 -1 -120 38 -120 92c0 32 16 65 62 90v51c-18 -32 -58 -64 -127 -64c-119 0 -166 83 -166 187v354h58z" />
    <glyph glyph-name="uring" unicode="&#x16f;" horiz-adv-x="464" 
d="M113 535v-348c0 -88 37 -140 114 -140c79 0 121 58 121 145v343h58v-535h-58v58c-18 -32 -58 -64 -127 -64c-119 0 -166 83 -166 187v354h58zM135 659c0 56 40 96 96 96c62 0 99 -40 99 -94c0 -56 -39 -96 -98 -96c-58 0 -97 40 -97 94zM179 659c0 -30 20 -53 53 -53
c36 0 54 23 54 55c0 30 -18 53 -55 53c-32 0 -52 -23 -52 -55z" />
    <glyph glyph-name="utilde" unicode="&#x169;" horiz-adv-x="464" 
d="M113 535v-348c0 -88 37 -140 114 -140c79 0 121 58 121 145v343h58v-535h-58v58c-18 -32 -58 -64 -127 -64c-119 0 -166 83 -166 187v354h58zM292 591c-56 0 -78 51 -122 51c-24 0 -35 -19 -36 -49h-46c0 55 30 100 87 100c54 0 78 -51 121 -51c24 0 35 19 36 50h46
c-1 -59 -33 -101 -86 -101z" />
    <glyph glyph-name="wacute" unicode="&#x1e83;" horiz-adv-x="838" 
d="M452 535l163 -464l163 464h60l-193 -535h-63l-163 459l-164 -459h-63l-192 535h62l163 -464l163 464h64zM475 717h59l-80 -132h-58z" />
    <glyph glyph-name="wcircumflex" unicode="&#x175;" horiz-adv-x="838" 
d="M452 535l163 -464l163 464h60l-193 -535h-63l-163 459l-164 -459h-63l-192 535h62l163 -464l163 464h64zM390 718h59l106 -139h-58l-77 96l-78 -96h-58z" />
    <glyph glyph-name="wdieresis" unicode="&#x1e85;" horiz-adv-x="838" 
d="M452 535l163 -464l163 464h60l-193 -535h-63l-163 459l-164 -459h-63l-192 535h62l163 -464l163 464h64zM341 606c-26 0 -46 20 -46 46c0 25 20 46 46 46c24 0 46 -21 46 -46c0 -26 -22 -46 -46 -46zM498 606c-26 0 -46 20 -46 46c0 25 20 46 46 46c24 0 46 -21 46 -46
c0 -26 -22 -46 -46 -46z" />
    <glyph glyph-name="wgrave" unicode="&#x1e81;" horiz-adv-x="838" 
d="M452 535l163 -464l163 464h60l-193 -535h-63l-163 459l-164 -459h-63l-192 535h62l163 -464l163 464h64zM307 717h58l77 -132h-57z" />
    <glyph glyph-name="ycircumflex" unicode="&#x177;" horiz-adv-x="498" 
d="M214 -175h-59l70 175l-227 535h65l193 -461l181 461h63zM223 718h59l106 -139h-58l-77 96l-78 -96h-58z" />
    <glyph glyph-name="ygrave" unicode="&#x1ef3;" horiz-adv-x="498" 
d="M214 -175h-59l70 175l-227 535h65l193 -461l181 461h63zM155 717h58l77 -132h-57z" />
    <glyph glyph-name="zacute" unicode="&#x17a;" horiz-adv-x="447" 
d="M423 485l-334 -435h334v-50h-399v50l329 435h-320v50h390v-50zM270 717h59l-80 -132h-58z" />
    <glyph glyph-name="zdotaccent" unicode="&#x17c;" horiz-adv-x="447" 
d="M423 485l-334 -435h334v-50h-399v50l329 435h-320v50h390v-50zM228 605c-26 0 -47 20 -47 47s21 47 47 47s47 -20 47 -47s-21 -47 -47 -47z" />
    <glyph glyph-name="zacute.pl" horiz-adv-x="447" 
d="M423 485l-334 -435h334v-50h-399v50l329 435h-320v50h390v-50zM238 717h51l-42 -132h-52z" />
    <glyph glyph-name="f_i" unicode="&#xfb01;" horiz-adv-x="411" 
d="M353 535v-535h-58v535h58zM324 605c-26 0 -47 20 -47 47s21 47 47 47s47 -20 47 -47s-21 -47 -47 -47zM126 580v-45h98v-51h-98v-484h-58v484h-58v51h58v43c0 93 36 153 138 153h21v-51h-20c-69 0 -81 -43 -81 -100z" />
    <glyph glyph-name="f_l" unicode="&#xfb02;" horiz-adv-x="411" 
d="M353 731v-731h-58v731h58zM126 580v-45h98v-51h-98v-484h-58v484h-58v51h58v43c0 93 36 153 138 153h21v-51h-20c-69 0 -81 -43 -81 -100z" />
    <glyph glyph-name="oneeighth" unicode="&#x215b;" horiz-adv-x="654" 
d="M440 261c0 -31 22 -55 54 -55c33 0 56 23 56 55c0 33 -24 56 -56 56c-33 0 -54 -23 -54 -56zM388 264c0 54 38 99 106 99s108 -45 108 -99c0 -36 -16 -63 -40 -78c30 -17 46 -46 46 -86c0 -58 -43 -105 -114 -105c-72 0 -113 45 -113 105c0 39 16 68 45 86
c-23 15 -38 40 -38 78zM435 101c0 -35 24 -60 59 -60s61 24 61 60c0 37 -26 61 -61 61c-36 0 -59 -25 -59 -61zM581 692l-518 -692h-57l517 692h58zM152 692v-357h-52v305l-41 -18v50l44 20h49z" />
    <glyph glyph-name="onethird" unicode="&#x2153;" horiz-adv-x="664" 
d="M460 168v42l85 99h-135v48h199v-48l-87 -98c52 -3 101 -35 101 -102c0 -69 -52 -114 -115 -114c-83 0 -115 57 -115 111h52c0 -39 23 -64 63 -64c37 0 62 23 62 64c0 42 -28 62 -71 62h-39zM581 692l-518 -692h-57l517 692h58zM152 692v-357h-52v305l-41 -18v50l44 20h49
z" />
    <glyph glyph-name="threeeighths" unicode="&#x215c;" horiz-adv-x="726" 
d="M512 261c0 -31 22 -55 54 -55c33 0 56 23 56 55c0 33 -24 56 -56 56c-33 0 -54 -23 -54 -56zM460 264c0 54 38 99 106 99s108 -45 108 -99c0 -36 -16 -63 -40 -78c30 -17 46 -46 46 -86c0 -58 -43 -105 -114 -105c-72 0 -113 45 -113 105c0 39 16 68 45 86
c-23 15 -38 40 -38 78zM507 101c0 -35 24 -60 59 -60s61 24 61 60c0 37 -26 61 -61 61c-36 0 -59 -25 -59 -61zM653 692l-518 -692h-57l517 692h58zM107 503v42l85 99h-135v48h199v-48l-87 -98c52 -3 100 -35 100 -102c0 -69 -51 -114 -114 -114c-83 0 -115 57 -115 111h52
c0 -39 23 -64 63 -64c37 0 61 23 61 64c0 42 -27 62 -70 62h-39z" />
    <glyph glyph-name="fiveeighths" unicode="&#x215d;" horiz-adv-x="728" 
d="M462 264c0 54 38 99 106 99s108 -45 108 -99c0 -36 -16 -63 -40 -78c30 -17 46 -46 46 -86c0 -58 -43 -105 -114 -105c-72 0 -113 45 -113 105c0 39 16 68 45 86c-23 15 -38 40 -38 78zM48 443h54c1 -40 18 -64 59 -64c39 0 58 27 58 64v18c0 40 -19 62 -58 62
c-29 0 -44 -14 -53 -29h-50v198h193v-48h-142v-94c10 11 33 22 61 22c66 0 102 -40 102 -109v-18c0 -67 -45 -115 -111 -115c-84 0 -113 54 -113 113zM655 692l-518 -692h-57l517 692h58zM509 101c0 -35 24 -60 59 -60s61 24 61 60c0 37 -26 61 -61 61
c-36 0 -59 -25 -59 -61zM514 261c0 -31 22 -55 54 -55c33 0 56 23 56 55c0 33 -24 56 -56 56c-33 0 -54 -23 -54 -56z" />
    <glyph glyph-name="twothirds" unicode="&#x2154;" horiz-adv-x="741" 
d="M537 168v42l85 99h-135v48h199v-48l-87 -98c52 -3 101 -35 101 -102c0 -69 -52 -114 -115 -114c-83 0 -115 57 -115 111h52c0 -39 23 -64 63 -64c37 0 62 23 62 64c0 42 -28 62 -71 62h-39zM658 692l-518 -692h-57l517 692h58zM258 335h-218v45l123 136
c23 26 38 49 38 78c0 32 -19 55 -54 55c-44 0 -54 -34 -53 -57h-52c-2 47 23 106 105 106c71 0 107 -46 107 -103c0 -44 -18 -72 -51 -108l-96 -104h151v-48z" />
    <glyph glyph-name="seveneighths" unicode="&#x215e;" horiz-adv-x="663" 
d="M279 654l-141 -319h-57l136 309h-163v48h225v-38zM449 261c0 -31 22 -55 54 -55c33 0 56 23 56 55c0 33 -24 56 -56 56c-33 0 -54 -23 -54 -56zM397 264c0 54 38 99 106 99s108 -45 108 -99c0 -36 -16 -63 -40 -78c30 -17 46 -46 46 -86c0 -58 -43 -105 -114 -105
c-72 0 -113 45 -113 105c0 39 16 68 45 86c-23 15 -38 40 -38 78zM444 101c0 -35 24 -60 59 -60s61 24 61 60c0 37 -26 61 -61 61c-36 0 -59 -25 -59 -61zM590 692l-518 -692h-57l517 692h58z" />
    <glyph glyph-name="uni24C5" unicode="&#x24c5;" horiz-adv-x="784" 
d="M520 430c0 -64 -44 -112 -116 -112h-43v-160h-54v380h97c76 0 116 -43 116 -108zM391 490h-30v-124h30c49 0 72 22 72 63c0 42 -22 61 -72 61zM30 346c0 201 146 360 358 360c224 0 366 -155 366 -357c0 -203 -139 -362 -361 -362c-221 0 -363 156 -363 359zM85 346
c0 -176 119 -313 308 -313s306 134 306 315c0 180 -118 312 -311 312c-181 0 -303 -134 -303 -314z" />
    <glyph glyph-name="zero.num" horiz-adv-x="284" 
d="M252 585v-144c0 -63 -38 -114 -110 -114c-76 0 -110 48 -110 114v144c0 64 34 115 110 115c73 0 110 -51 110 -115zM200 440v146c0 39 -20 66 -58 66c-39 0 -58 -26 -58 -66v-146c0 -40 19 -65 58 -65c38 0 58 26 58 65z" />
    <glyph glyph-name="one.num" horiz-adv-x="138" 
d="M100 692v-357h-50v307l-41 -18v48l44 20h47z" />
    <glyph glyph-name="two.num" horiz-adv-x="255" 
d="M238 335h-218v44l125 137c23 26 38 50 38 79c0 33 -21 58 -56 58c-45 0 -56 -36 -55 -60h-50c-2 47 24 107 105 107c71 0 107 -47 107 -104c0 -44 -18 -73 -51 -109l-97 -105h152v-47z" />
    <glyph glyph-name="three.num" horiz-adv-x="268" 
d="M84 504v39l87 102h-137v47h196v-47l-85 -99c52 -3 101 -35 101 -104c0 -71 -49 -115 -114 -115c-83 0 -115 57 -115 111h50c0 -40 24 -66 65 -66c38 0 63 26 63 68c0 43 -28 64 -72 64h-39z" />
    <glyph glyph-name="four.num" horiz-adv-x="282" 
d="M269 449h-43v-114h-50v114h-159v43l158 200h51v-198h43v-45zM176 626l-104 -132h104v132z" />
    <glyph glyph-name="five.num" horiz-adv-x="271" 
d="M28 440h51c1 -41 18 -66 60 -66c39 0 57 28 57 66v23c0 40 -18 62 -58 62c-30 0 -44 -14 -53 -29h-49v196h194v-47h-145v-97c10 11 31 24 62 24c66 0 100 -40 100 -109v-23c0 -65 -42 -113 -108 -113c-83 0 -111 54 -111 113z" />
    <glyph glyph-name="six.num" horiz-adv-x="279" 
d="M242 646l-41 -28c-10 16 -27 35 -59 35c-41 0 -59 -29 -59 -69v-33c11 12 35 26 67 26c68 0 105 -45 105 -112v-23c0 -66 -41 -115 -111 -115c-78 0 -112 49 -112 117v140c0 66 35 116 110 116c56 0 85 -27 100 -54zM83 469v-27c0 -39 19 -68 61 -68c38 0 60 27 60 68v23
c0 38 -20 65 -59 65c-42 0 -62 -29 -62 -61z" />
    <glyph glyph-name="seven.num" horiz-adv-x="227" 
d="M213 654l-111 -319h-55l109 310h-144v47h201v-38z" />
    <glyph glyph-name="eight.num" horiz-adv-x="279" 
d="M33 600c0 54 38 100 106 100s108 -46 108 -100c0 -36 -16 -63 -40 -79c30 -18 46 -47 46 -87c0 -58 -43 -107 -114 -107c-72 0 -113 47 -113 107c0 38 16 68 45 87c-22 16 -38 41 -38 79zM84 597c0 -32 23 -57 56 -57s56 24 56 57c0 34 -24 58 -56 58
c-34 0 -56 -24 -56 -58zM79 435c0 -36 25 -63 61 -63c35 0 61 26 61 63c0 38 -26 63 -61 63c-37 0 -61 -26 -61 -63z" />
    <glyph glyph-name="nine.num" horiz-adv-x="279" 
d="M37 381l41 28c10 -16 27 -35 59 -35c41 0 59 29 59 69v33c-11 -12 -34 -26 -63 -26c-71 0 -109 45 -109 112v23c0 66 41 115 111 115c78 0 112 -49 112 -117v-140c0 -66 -35 -116 -110 -116c-56 0 -85 27 -100 54zM196 558v27c0 39 -19 68 -61 68c-38 0 -60 -27 -60 -68
v-23c0 -38 20 -65 59 -65c42 0 62 29 62 61z" />
    <glyph glyph-name="zero.den" horiz-adv-x="284" 
d="M252 250v-144c0 -63 -38 -114 -110 -114c-76 0 -110 48 -110 114v144c0 64 34 115 110 115c73 0 110 -51 110 -115zM200 105v146c0 39 -20 66 -58 66c-39 0 -58 -26 -58 -66v-146c0 -40 19 -65 58 -65c38 0 58 26 58 65z" />
    <glyph glyph-name="one.den" horiz-adv-x="138" 
d="M100 357v-357h-50v307l-41 -18v48l44 20h47z" />
    <glyph glyph-name="two.den" horiz-adv-x="255" 
d="M238 0h-218v44l125 137c23 26 38 50 38 79c0 33 -21 58 -56 58c-45 0 -56 -36 -55 -60h-50c-2 47 24 107 105 107c71 0 107 -47 107 -104c0 -44 -18 -73 -51 -109l-97 -105h152v-47z" />
    <glyph glyph-name="three.den" horiz-adv-x="268" 
d="M84 169v39l87 102h-137v47h196v-47l-85 -99c52 -3 101 -35 101 -104c0 -71 -49 -115 -114 -115c-83 0 -115 57 -115 111h50c0 -40 24 -66 65 -66c38 0 63 26 63 68c0 43 -28 64 -72 64h-39z" />
    <glyph glyph-name="four.den" horiz-adv-x="282" 
d="M269 114h-43v-114h-50v114h-159v43l158 200h51v-198h43v-45zM176 291l-104 -132h104v132z" />
    <glyph glyph-name="five.den" horiz-adv-x="271" 
d="M28 105h51c1 -41 18 -66 60 -66c39 0 57 28 57 66v23c0 40 -18 62 -58 62c-30 0 -44 -14 -53 -29h-49v196h194v-47h-145v-97c10 11 31 24 62 24c66 0 100 -40 100 -109v-23c0 -65 -42 -113 -108 -113c-83 0 -111 54 -111 113z" />
    <glyph glyph-name="six.den" horiz-adv-x="279" 
d="M242 311l-41 -28c-10 16 -27 35 -59 35c-41 0 -59 -29 -59 -69v-33c11 12 35 26 67 26c68 0 105 -45 105 -112v-23c0 -66 -41 -115 -111 -115c-78 0 -112 49 -112 117v140c0 66 35 116 110 116c56 0 85 -27 100 -54zM83 134v-27c0 -39 19 -68 61 -68c38 0 60 27 60 68v23
c0 38 -20 65 -59 65c-42 0 -62 -29 -62 -61z" />
    <glyph glyph-name="seven.den" horiz-adv-x="227" 
d="M213 319l-111 -319h-55l109 310h-144v47h201v-38z" />
    <glyph glyph-name="eight.den" horiz-adv-x="279" 
d="M33 265c0 54 38 100 106 100s108 -46 108 -100c0 -36 -16 -63 -40 -79c30 -18 46 -47 46 -87c0 -58 -43 -107 -114 -107c-72 0 -113 47 -113 107c0 38 16 68 45 87c-22 16 -38 41 -38 79zM84 262c0 -32 23 -57 56 -57s56 24 56 57c0 34 -24 58 -56 58
c-34 0 -56 -24 -56 -58zM79 100c0 -36 25 -63 61 -63c35 0 61 26 61 63c0 38 -26 63 -61 63c-37 0 -61 -26 -61 -63z" />
    <glyph glyph-name="nine.den" horiz-adv-x="279" 
d="M37 46l41 28c10 -16 27 -35 59 -35c41 0 59 29 59 69v33c-11 -12 -34 -26 -63 -26c-71 0 -109 45 -109 112v23c0 66 41 115 111 115c78 0 112 -49 112 -117v-140c0 -66 -35 -116 -110 -116c-56 0 -85 27 -100 54zM196 223v27c0 39 -19 68 -61 68c-38 0 -60 -27 -60 -68
v-23c0 -38 20 -65 59 -65c42 0 62 29 62 61z" />
    <glyph glyph-name="a.alt" 
d="M509 0v104c-24 -47 -96 -113 -209 -113c-158 0 -272 111 -272 276c0 160 117 277 272 277c93 0 173 -47 209 -106v97h58v-535h-58zM88 267c0 -132 89 -224 212 -224s212 92 212 224c0 131 -89 225 -212 225s-212 -94 -212 -225z" />
    <glyph glyph-name="k.alt" horiz-adv-x="448" 
d="M234 196l194 -196h-70l-240 236v-236h-58v731h58v-247c19 24 61 57 126 57c109 0 177 -73 177 -173c0 -105 -80 -175 -187 -172zM364 366c0 71 -47 126 -123 126c-74 0 -125 -54 -125 -126s52 -125 125 -125c74 0 123 54 123 125z" />
    <glyph glyph-name="u.alt" horiz-adv-x="458" 
d="M344 535h58v-354c0 -104 -60 -187 -173 -187c-125 0 -173 83 -173 187v354h58v-348c0 -88 39 -140 115 -140s115 52 115 140v348z" />
    <glyph glyph-name="w.alt" horiz-adv-x="746" 
d="M632 535h58v-354c0 -104 -60 -187 -173 -187c-73 0 -121 28 -146 79c-28 -50 -76 -79 -142 -79c-125 0 -173 83 -173 187v354h58v-348c0 -88 39 -140 115 -140c75 0 114 50 115 136v352h58v-352c1 -86 40 -136 115 -136c76 0 115 52 115 140v348z" />
    <glyph glyph-name="y.alt" horiz-adv-x="465" 
d="M69 -142l23 52c22 -12 67 -39 134 -39c75 0 123 42 123 122v65c-18 -32 -58 -64 -127 -64c-119 0 -166 83 -166 187v354h58v-348c0 -88 36 -140 114 -140c79 0 121 58 121 145v343h58v-540c0 -105 -64 -177 -181 -177c-77 0 -127 23 -157 40z" />
    <glyph glyph-name="aacute.alt" 
d="M337 717h59l-80 -132h-58zM509 0v104c-24 -47 -96 -113 -209 -113c-158 0 -272 111 -272 276c0 160 117 277 272 277c93 0 173 -47 209 -106v97h58v-535h-58zM88 267c0 -132 89 -224 212 -224s212 92 212 224c0 131 -89 225 -212 225s-212 -94 -212 -225z" />
    <glyph glyph-name="abreve.alt" 
d="M304 577c-102 0 -128 81 -129 123h49c2 -27 17 -75 80 -75s78 48 80 75h47c0 -43 -28 -123 -127 -123zM509 0v104c-24 -47 -96 -113 -209 -113c-158 0 -272 111 -272 276c0 160 117 277 272 277c93 0 173 -47 209 -106v97h58v-535h-58zM88 267c0 -132 89 -224 212 -224
s212 92 212 224c0 131 -89 225 -212 225s-212 -94 -212 -225z" />
    <glyph glyph-name="acircumflex.alt" 
d="M276 718h59l106 -139h-58l-77 96l-78 -96h-58zM509 0v104c-24 -47 -96 -113 -209 -113c-158 0 -272 111 -272 276c0 160 117 277 272 277c93 0 173 -47 209 -106v97h58v-535h-58zM88 267c0 -132 89 -224 212 -224s212 92 212 224c0 131 -89 225 -212 225
s-212 -94 -212 -225z" />
    <glyph glyph-name="adieresis.alt" 
d="M223 606c-26 0 -46 20 -46 46c0 25 20 46 46 46c24 0 46 -21 46 -46c0 -26 -22 -46 -46 -46zM380 606c-26 0 -46 20 -46 46c0 25 20 46 46 46c24 0 46 -21 46 -46c0 -26 -22 -46 -46 -46zM509 0v104c-24 -47 -96 -113 -209 -113c-158 0 -272 111 -272 276
c0 160 117 277 272 277c93 0 173 -47 209 -106v97h58v-535h-58zM88 267c0 -132 89 -224 212 -224s212 92 212 224c0 131 -89 225 -212 225s-212 -94 -212 -225z" />
    <glyph glyph-name="agrave.alt" 
d="M206 717h58l77 -132h-57zM509 0v104c-24 -47 -96 -113 -209 -113c-158 0 -272 111 -272 276c0 160 117 277 272 277c93 0 173 -47 209 -106v97h58v-535h-58zM88 267c0 -132 89 -224 212 -224s212 92 212 224c0 131 -89 225 -212 225s-212 -94 -212 -225z" />
    <glyph glyph-name="amacron.alt" 
d="M194 609v48h220v-48h-220zM509 0v104c-24 -47 -96 -113 -209 -113c-158 0 -272 111 -272 276c0 160 117 277 272 277c93 0 173 -47 209 -106v97h58v-535h-58zM88 267c0 -132 89 -224 212 -224s212 92 212 224c0 131 -89 225 -212 225s-212 -94 -212 -225z" />
    <glyph glyph-name="aogonek.alt" 
d="M447 -83c0 32 16 65 62 90v97c-24 -47 -96 -113 -209 -113c-158 0 -272 111 -272 276c0 160 117 277 272 277c93 0 173 -47 209 -106v97h58v-540c-49 -19 -66 -44 -66 -73c0 -35 28 -50 66 -51v-46c-78 -1 -120 38 -120 92zM88 267c0 -132 89 -224 212 -224
s212 92 212 224c0 131 -89 225 -212 225s-212 -94 -212 -225z" />
    <glyph glyph-name="aring.alt" 
d="M203 659c0 56 40 96 96 96c62 0 99 -40 99 -94c0 -56 -39 -96 -98 -96c-58 0 -97 40 -97 94zM247 659c0 -30 20 -53 53 -53c36 0 54 23 54 55c0 30 -18 53 -55 53c-32 0 -52 -23 -52 -55zM509 0v104c-24 -47 -96 -113 -209 -113c-158 0 -272 111 -272 276
c0 160 117 277 272 277c93 0 173 -47 209 -106v97h58v-535h-58zM88 267c0 -132 89 -224 212 -224s212 92 212 224c0 131 -89 225 -212 225s-212 -94 -212 -225z" />
    <glyph glyph-name="aringacute.alt" 
d="M345 909h60l-77 -123h-59zM509 0v104c-24 -47 -96 -113 -209 -113c-158 0 -272 111 -272 276c0 160 117 277 272 277c93 0 173 -47 209 -106v97h58v-535h-58zM88 267c0 -132 89 -224 212 -224s212 92 212 224c0 131 -89 225 -212 225s-212 -94 -212 -225zM206 659
c0 56 40 96 96 96c62 0 99 -40 99 -94c0 -56 -39 -96 -98 -96c-58 0 -97 40 -97 94zM250 659c0 -30 20 -53 53 -53c36 0 54 23 54 55c0 30 -18 53 -55 53c-32 0 -52 -23 -52 -55z" />
    <glyph glyph-name="atilde.alt" 
d="M362 591c-56 0 -78 51 -122 51c-24 0 -35 -19 -36 -49h-46c0 55 30 100 87 100c54 0 78 -51 121 -51c24 0 35 19 36 50h46c-1 -59 -33 -101 -86 -101zM509 0v104c-24 -47 -96 -113 -209 -113c-158 0 -272 111 -272 276c0 160 117 277 272 277c93 0 173 -47 209 -106v97
h58v-535h-58zM88 267c0 -132 89 -224 212 -224s212 92 212 224c0 131 -89 225 -212 225s-212 -94 -212 -225z" />
    <glyph glyph-name="kcommaaccent.alt" horiz-adv-x="448" 
d="M180 -234l44 98c-25 5 -39 22 -39 46c0 29 21 47 48 47c28 0 48 -21 48 -48c0 -21 -9 -38 -18 -57l-40 -86h-43zM234 196l194 -196h-70l-240 236v-236h-58v731h58v-247c19 24 61 57 126 57c109 0 177 -73 177 -173c0 -105 -80 -175 -187 -172zM364 366
c0 71 -47 126 -123 126c-74 0 -125 -54 -125 -126s52 -125 125 -125c74 0 123 54 123 125z" />
    <glyph glyph-name="uacute.alt" horiz-adv-x="458" 
d="M275 717h59l-80 -132h-58zM344 535h58v-354c0 -104 -60 -187 -173 -187c-125 0 -173 83 -173 187v354h58v-348c0 -88 39 -140 115 -140s115 52 115 140v348z" />
    <glyph glyph-name="ugrave.alt" horiz-adv-x="458" 
d="M136 717h58l77 -132h-57zM344 535h58v-354c0 -104 -60 -187 -173 -187c-125 0 -173 83 -173 187v354h58v-348c0 -88 39 -140 115 -140s115 52 115 140v348z" />
    <glyph glyph-name="ucircumflex.alt" horiz-adv-x="458" 
d="M199 718h59l106 -139h-58l-77 96l-78 -96h-58zM344 535h58v-354c0 -104 -60 -187 -173 -187c-125 0 -173 83 -173 187v354h58v-348c0 -88 39 -140 115 -140s115 52 115 140v348z" />
    <glyph glyph-name="udieresis.alt" horiz-adv-x="458" 
d="M150 606c-26 0 -46 20 -46 46c0 25 20 46 46 46c24 0 46 -21 46 -46c0 -26 -22 -46 -46 -46zM307 606c-26 0 -46 20 -46 46c0 25 20 46 46 46c24 0 46 -21 46 -46c0 -26 -22 -46 -46 -46zM344 535h58v-354c0 -104 -60 -187 -173 -187c-125 0 -173 83 -173 187v354h58
v-348c0 -88 39 -140 115 -140s115 52 115 140v348z" />
    <glyph glyph-name="ubreve.alt" horiz-adv-x="458" 
d="M230 577c-102 0 -128 81 -129 123h49c2 -27 17 -75 80 -75s78 48 80 75h47c0 -43 -28 -123 -127 -123zM344 535h58v-354c0 -104 -60 -187 -173 -187c-125 0 -173 83 -173 187v354h58v-348c0 -88 39 -140 115 -140s115 52 115 140v348z" />
    <glyph glyph-name="uhungarumlaut.alt" horiz-adv-x="458" 
d="M193 717h57l-65 -132h-58zM324 717h57l-65 -132h-58zM344 535h58v-354c0 -104 -60 -187 -173 -187c-125 0 -173 83 -173 187v354h58v-348c0 -88 39 -140 115 -140s115 52 115 140v348z" />
    <glyph glyph-name="umacron.alt" horiz-adv-x="458" 
d="M119 609v48h220v-48h-220zM344 535h58v-354c0 -104 -60 -187 -173 -187c-125 0 -173 83 -173 187v354h58v-348c0 -88 39 -140 115 -140s115 52 115 140v348z" />
    <glyph glyph-name="uogonek.alt" horiz-adv-x="458" 
d="M344 535h58v-354c0 -74 -31 -138 -89 -168c-39 -25 -54 -55 -54 -84c0 -38 29 -57 66 -58v-46c-77 -1 -120 44 -120 99c0 21 7 47 25 70h-1c-125 0 -173 83 -173 187v354h58v-348c0 -88 39 -140 115 -140s115 52 115 140v348z" />
    <glyph glyph-name="uring.alt" horiz-adv-x="458" 
d="M132 659c0 56 40 96 96 96c62 0 99 -40 99 -94c0 -56 -39 -96 -98 -96c-58 0 -97 40 -97 94zM176 659c0 -30 20 -53 53 -53c36 0 54 23 54 55c0 30 -18 53 -55 53c-32 0 -52 -23 -52 -55zM344 535h58v-354c0 -104 -60 -187 -173 -187c-125 0 -173 83 -173 187v354h58
v-348c0 -88 39 -140 115 -140s115 52 115 140v348z" />
    <glyph glyph-name="utilde.alt" horiz-adv-x="458" 
d="M286 591c-56 0 -78 51 -122 51c-24 0 -35 -19 -36 -49h-46c0 55 30 100 87 100c54 0 78 -51 121 -51c24 0 35 19 36 50h46c-1 -59 -33 -101 -86 -101zM344 535h58v-354c0 -104 -60 -187 -173 -187c-125 0 -173 83 -173 187v354h58v-348c0 -88 39 -140 115 -140
s115 52 115 140v348z" />
    <glyph glyph-name="wacute.alt" horiz-adv-x="746" 
d="M423 717h59l-80 -132h-58zM632 535h58v-354c0 -104 -60 -187 -173 -187c-73 0 -121 28 -146 79c-28 -50 -76 -79 -142 -79c-125 0 -173 83 -173 187v354h58v-348c0 -88 39 -140 115 -140c75 0 114 50 115 136v352h58v-352c1 -86 40 -136 115 -136c76 0 115 52 115 140
v348z" />
    <glyph glyph-name="wcircumflex.alt" horiz-adv-x="746" 
d="M344 718h59l106 -139h-58l-77 96l-78 -96h-58zM632 535h58v-354c0 -104 -60 -187 -173 -187c-73 0 -121 28 -146 79c-28 -50 -76 -79 -142 -79c-125 0 -173 83 -173 187v354h58v-348c0 -88 39 -140 115 -140c75 0 114 50 115 136v352h58v-352c1 -86 40 -136 115 -136
c76 0 115 52 115 140v348z" />
    <glyph glyph-name="wdieresis.alt" horiz-adv-x="746" 
d="M295 606c-26 0 -46 20 -46 46c0 25 20 46 46 46c24 0 46 -21 46 -46c0 -26 -22 -46 -46 -46zM452 606c-26 0 -46 20 -46 46c0 25 20 46 46 46c24 0 46 -21 46 -46c0 -26 -22 -46 -46 -46zM632 535h58v-354c0 -104 -60 -187 -173 -187c-73 0 -121 28 -146 79
c-28 -50 -76 -79 -142 -79c-125 0 -173 83 -173 187v354h58v-348c0 -88 39 -140 115 -140c75 0 114 50 115 136v352h58v-352c1 -86 40 -136 115 -136c76 0 115 52 115 140v348z" />
    <glyph glyph-name="wgrave.alt" horiz-adv-x="746" 
d="M267 717h58l77 -132h-57zM632 535h58v-354c0 -104 -60 -187 -173 -187c-73 0 -121 28 -146 79c-28 -50 -76 -79 -142 -79c-125 0 -173 83 -173 187v354h58v-348c0 -88 39 -140 115 -140c75 0 114 50 115 136v352h58v-352c1 -86 40 -136 115 -136c76 0 115 52 115 140v348
z" />
    <glyph glyph-name="yacute.alt" horiz-adv-x="465" 
d="M69 -142l23 52c22 -12 67 -39 134 -39c75 0 123 42 123 122v65c-18 -32 -58 -64 -127 -64c-119 0 -166 83 -166 187v354h58v-348c0 -88 36 -140 114 -140c79 0 121 58 121 145v343h58v-540c0 -105 -64 -177 -181 -177c-77 0 -127 23 -157 40zM279 717h59l-80 -132h-58z
" />
    <glyph glyph-name="ydieresis.alt" horiz-adv-x="465" 
d="M69 -142l23 52c22 -12 67 -39 134 -39c75 0 123 42 123 122v65c-18 -32 -58 -64 -127 -64c-119 0 -166 83 -166 187v354h58v-348c0 -88 36 -140 114 -140c79 0 121 58 121 145v343h58v-540c0 -105 -64 -177 -181 -177c-77 0 -127 23 -157 40zM153 606
c-26 0 -46 20 -46 46c0 25 20 46 46 46c24 0 46 -21 46 -46c0 -26 -22 -46 -46 -46zM310 606c-26 0 -46 20 -46 46c0 25 20 46 46 46c24 0 46 -21 46 -46c0 -26 -22 -46 -46 -46z" />
    <glyph glyph-name="ycircumflex.alt" horiz-adv-x="465" 
d="M69 -142l23 52c22 -12 67 -39 134 -39c75 0 123 42 123 122v65c-18 -32 -58 -64 -127 -64c-119 0 -166 83 -166 187v354h58v-348c0 -88 36 -140 114 -140c79 0 121 58 121 145v343h58v-540c0 -105 -64 -177 -181 -177c-77 0 -127 23 -157 40zM203 718h59l106 -139h-58
l-77 96l-78 -96h-58z" />
    <glyph glyph-name="ygrave.alt" horiz-adv-x="465" 
d="M69 -142l23 52c22 -12 67 -39 134 -39c75 0 123 42 123 122v65c-18 -32 -58 -64 -127 -64c-119 0 -166 83 -166 187v354h58v-348c0 -88 36 -140 114 -140c79 0 121 58 121 145v343h58v-540c0 -105 -64 -177 -181 -177c-77 0 -127 23 -157 40zM139 717h58l77 -132h-57z
" />
    <glyph glyph-name="f.short" horiz-adv-x="237" 
d="M126 580v-45h98v-51h-98v-484h-58v484h-58v51h58v43c0 93 36 153 138 153h21v-51h-20c-69 0 -81 -43 -81 -100z" />
    <glyph glyph-name="f_f.short" horiz-adv-x="457" 
d="M346 580v-45h98v-51h-98v-484h-58v484h-162v-484h-58v484h-58v51h58v43c0 93 36 153 138 153h28v-51h-27c-69 0 -81 -43 -81 -100v-45h162v43c0 93 36 153 138 153h21v-51h-20c-69 0 -81 -43 -81 -100z" />
    <glyph glyph-name="questiondown.uc" horiz-adv-x="452" 
d="M212 369v168h59v-216h-34c-85 0 -149 -44 -149 -137c0 -86 55 -144 140 -144c117 0 141 101 140 157h57c3 -68 -31 -209 -197 -209c-130 0 -202 87 -202 195c0 101 71 182 186 186zM242 699c27 0 49 -21 49 -49s-22 -49 -49 -49s-49 21 -49 49s22 49 49 49z" />
    <glyph glyph-name="exclamdown.uc" horiz-adv-x="182" 
d="M121 537v-537h-59v537h59zM91 699c27 0 49 -21 49 -49s-22 -49 -49 -49s-49 21 -49 49s22 49 49 49z" />
    <glyph glyph-name="hyphen.uc" horiz-adv-x="260" 
d="M40 296v56h180v-56h-180z" />
    <glyph glyph-name="endash.uc" horiz-adv-x="599" 
d="M559 297h-519v50h519v-50z" />
    <glyph glyph-name="emdash.uc" horiz-adv-x="924" 
d="M884 297h-844v50h844v-50z" />
    <glyph glyph-name="guilsinglleft.uc" horiz-adv-x="178" 
d="M159 112h-55l-86 156l86 158h56l-86 -158z" />
    <glyph glyph-name="guilsinglright.uc" horiz-adv-x="178" 
d="M19 426h55l86 -156l-86 -158h-56l86 158z" />
    <glyph glyph-name="guillemotleft.uc" horiz-adv-x="306" 
d="M159 112h-55l-86 156l86 158h56l-86 -158zM287 112h-55l-86 156l86 158h56l-86 -158z" />
    <glyph glyph-name="guillemotright.uc" horiz-adv-x="306" 
d="M19 426h55l86 -156l-86 -158h-56l86 158zM147 426h55l86 -156l-86 -158h-56l86 158z" />
    <glyph glyph-name="parenleft.uc" horiz-adv-x="228" 
d="M61 -46v672c0 92 36 129 122 129h33v-48h-28c-66 0 -71 -35 -71 -86v-662c0 -51 5 -86 71 -86h28v-48h-33c-86 0 -122 37 -122 129z" />
    <glyph glyph-name="parenright.uc" horiz-adv-x="228" 
d="M167 626v-672c0 -92 -36 -129 -122 -129h-33v48h28c66 0 71 35 71 86v662c0 51 -5 86 -71 86h-28v48h33c86 0 122 -37 122 -129z" />
    <glyph glyph-name="bracketleft.uc" horiz-adv-x="228" 
d="M61 -175v930h155v-48h-99v-834h99v-48h-155z" />
    <glyph glyph-name="bracketright.uc" horiz-adv-x="228" 
d="M167 755v-930h-155v48h99v834h-99v48h155z" />
    <glyph glyph-name="braceleft.uc" horiz-adv-x="254" 
d="M143 -41c0 -51 5 -86 71 -86h28v-48h-33c-86 0 -122 37 -122 129v244c0 43 -5 67 -55 67h-6v49h6c50 0 55 24 55 67v245c0 92 36 129 122 129h33v-48h-28c-66 0 -71 -35 -71 -86v-230c0 -68 -13 -91 -43 -101c29 -9 43 -32 43 -102v-229z" />
    <glyph glyph-name="braceright.uc" horiz-adv-x="254" 
d="M111 -41v229c0 70 14 93 43 102c-30 10 -43 33 -43 101v230c0 51 -5 86 -71 86h-28v48h33c86 0 122 -37 122 -129v-245c0 -43 5 -67 55 -67h6v-49h-6c-50 0 -55 -24 -55 -67v-244c0 -92 -36 -129 -122 -129h-33v48h28c66 0 71 35 71 86z" />
    <glyph glyph-name="slash.uc" horiz-adv-x="442" 
d="M432 731l-318 -786h-56l318 786h56z" />
    <glyph glyph-name="backslash.uc" horiz-adv-x="442" 
d="M327 -55l-317 786h56l317 -786h-56z" />
    <glyph glyph-name="bar.uc" horiz-adv-x="209" 
d="M132 731v-786h-55v786h55z" />
    <glyph glyph-name="at.uc" horiz-adv-x="955" 
d="M633 185c-22 -37 -81 -84 -169 -84c-123 0 -211 87 -211 212c0 122 90 213 211 213c73 0 133 -31 160 -69v62h58v-278c0 -53 18 -87 73 -87c61 0 112 77 112 213c0 210 -153 348 -382 348c-247 0 -394 -182 -394 -400c0 -240 169 -395 418 -395c120 0 209 43 278 104
l32 -37c-56 -57 -168 -119 -312 -119c-301 0 -477 194 -477 448c0 256 186 451 458 451c275 0 438 -180 438 -400c0 -178 -80 -265 -176 -265c-73 0 -106 40 -117 83zM314 313c0 -95 62 -160 151 -160c88 0 161 59 161 160s-73 161 -162 161s-150 -66 -150 -161z" />
    <glyph glyph-name="uni2009" unicode="&#x2009;" horiz-adv-x="15" 
 />
    </font>
</defs>
</svg>
